M48
; DRILL file KiCad 10.0.3 date 2026-07-04T10:54:02
; FORMAT={-:-/ absolute / metric / decimal}
; #@! TF.CreationDate,2026-07-04T10:54:02-07:00
; #@! TF.GenerationSoftware,Kicad,Pcbnew,10.0.3
; #@! TF.FileFunction,NonPlated,1,2,NPTH
FMAT,2
METRIC
; #@! TA.AperFunction,NonPlated,NPTH,ComponentDrill
T1C1.700
; #@! TA.AperFunction,NonPlated,NPTH,ComponentDrill
T2C3.050
; #@! TA.AperFunction,NonPlated,NPTH,ComponentDrill
T3C3.200
; #@! TA.AperFunction,NonPlated,NPTH,ComponentDrill
T4C4.000
%
G90
G05
T1
X134.824Y-83.873
X134.824Y-107.685
X137.205Y-183.885
X139.587Y-126.735
X141.968Y-145.785
X144.984Y-83.873
X144.984Y-107.685
X146.73Y-164.835
X147.365Y-183.885
X149.747Y-126.735
X152.128Y-145.785
X153.874Y-107.685
X156.89Y-164.835
X158.637Y-83.873
X161.018Y-183.885
X163.399Y-126.735
X164.034Y-107.685
X168.162Y-145.785
X168.797Y-83.873
X171.178Y-183.885
X172.924Y-107.685
X173.559Y-126.735
X177.687Y-83.873
X177.687Y-164.835
X178.322Y-145.785
X182.449Y-126.735
X183.084Y-107.685
X184.83Y-183.885
X187.212Y-145.785
X187.847Y-83.873
X187.847Y-164.835
X191.974Y-107.685
X192.609Y-126.735
X194.99Y-183.885
X196.737Y-83.873
X196.737Y-164.835
X197.372Y-145.785
X201.499Y-126.735
X202.134Y-107.685
X206.262Y-145.785
X206.897Y-83.873
X206.897Y-164.835
X211.024Y-107.685
X211.659Y-126.735
X215.787Y-83.873
X215.787Y-164.835
X216.422Y-145.785
X220.549Y-126.735
X221.184Y-107.685
X225.312Y-145.785
X225.947Y-83.873
X225.947Y-164.835
X230.074Y-107.685
X230.709Y-126.735
X234.837Y-164.835
X235.472Y-145.785
X239.599Y-83.873
X239.599Y-126.735
X240.234Y-107.685
X244.362Y-145.785
X244.997Y-164.835
X249.124Y-107.685
X249.759Y-83.873
X249.759Y-126.735
X253.887Y-164.835
X254.522Y-145.785
X256.268Y-183.885
X258.649Y-83.873
X258.649Y-126.735
X259.284Y-107.685
X263.412Y-145.785
X264.047Y-164.835
X266.428Y-183.885
X268.174Y-107.685
X268.809Y-83.873
X268.809Y-126.735
X272.937Y-164.835
X273.572Y-145.785
X277.699Y-83.873
X277.699Y-126.735
X278.334Y-107.685
X282.462Y-145.785
X283.097Y-164.835
X287.224Y-107.685
X287.859Y-83.873
X287.859Y-126.735
X291.987Y-164.835
X292.622Y-145.785
X296.749Y-83.873
X296.749Y-126.735
X297.384Y-107.685
X301.512Y-145.785
X302.147Y-164.835
X306.274Y-107.685
X306.909Y-83.873
X306.909Y-126.735
X311.037Y-164.835
X311.672Y-145.785
X315.799Y-126.735
X316.434Y-107.685
X320.562Y-83.873
X320.562Y-145.785
X321.197Y-164.835
X325.324Y-107.685
X325.324Y-183.885
X325.959Y-126.735
X330.087Y-164.835
X330.722Y-83.873
X330.722Y-145.785
X334.849Y-126.735
X335.484Y-107.685
X335.484Y-183.885
X339.612Y-83.873
X339.612Y-145.785
X340.247Y-164.835
X344.374Y-107.685
X344.374Y-183.885
X345.009Y-126.735
X349.137Y-164.835
X349.772Y-83.873
X349.772Y-145.785
X353.899Y-126.735
X354.534Y-107.685
X354.534Y-183.885
X358.662Y-83.873
X358.662Y-145.785
X359.297Y-164.835
X363.424Y-107.685
X363.424Y-183.885
X364.059Y-126.735
X368.822Y-83.873
X368.822Y-145.785
X372.949Y-126.735
X373.584Y-107.685
X373.584Y-183.885
X375.33Y-164.835
X377.712Y-83.873
X383.109Y-126.735
X385.49Y-164.835
X387.872Y-83.873
X389.618Y-145.785
X391.999Y-107.685
X394.989Y-189.167
X396.762Y-126.735
X399.778Y-145.785
X401.524Y-83.873
X402.159Y-107.685
X405.149Y-189.167
X406.922Y-126.735
X411.684Y-83.873
X414.039Y-170.117
X414.039Y-189.167
X424.199Y-170.117
X424.199Y-189.167
X426.289Y-116.892
X433.089Y-189.167
X435.814Y-135.942
X436.449Y-116.892
X443.249Y-189.167
X445.339Y-116.892
X445.339Y-154.993
X445.974Y-135.942
X454.864Y-135.942
X455.499Y-116.892
X455.499Y-154.993
X464.389Y-154.993
X465.024Y-135.942
X474.549Y-154.993
T2
X139.91Y-157.835
X163.71Y-157.835
X211.348Y-176.885
X311.348Y-176.885
X382.798Y-138.785
X385.179Y-100.685
X406.598Y-138.785
X408.979Y-100.685
T3
X125.379Y-69.347
X125.379Y-209.347
X325.379Y-69.447
X325.479Y-209.347
X525.379Y-69.447
X525.379Y-209.347
T4
X139.904Y-83.873
X139.904Y-107.685
X139.91Y-173.075
X142.285Y-183.885
X144.667Y-126.735
X147.048Y-145.785
X151.81Y-164.835
X158.954Y-107.685
X163.71Y-173.075
X163.717Y-83.873
X166.098Y-183.885
X168.479Y-126.735
X173.242Y-145.785
X178.004Y-107.685
X182.767Y-83.873
X182.767Y-164.835
X187.529Y-126.735
X189.91Y-183.885
X192.292Y-145.785
X197.054Y-107.685
X201.817Y-83.873
X201.817Y-164.835
X206.579Y-126.735
X211.342Y-145.785
X211.348Y-192.125
X216.104Y-107.685
X220.867Y-83.873
X220.867Y-164.835
X225.629Y-126.735
X230.392Y-145.785
X235.154Y-107.685
X239.917Y-164.835
X244.679Y-83.873
X244.679Y-126.735
X249.442Y-145.785
X254.204Y-107.685
X258.967Y-164.835
X261.348Y-183.885
X263.729Y-83.873
X263.729Y-126.735
X268.492Y-145.785
X273.254Y-107.685
X278.017Y-164.835
X282.779Y-83.873
X282.779Y-126.735
X287.542Y-145.785
X292.304Y-107.685
X297.067Y-164.835
X301.829Y-83.873
X301.829Y-126.735
X306.592Y-145.785
X311.348Y-192.125
X311.354Y-107.685
X316.117Y-164.835
X320.879Y-126.735
X325.642Y-83.873
X325.642Y-145.785
X330.404Y-107.685
X330.404Y-183.885
X335.167Y-164.835
X339.929Y-126.735
X344.692Y-83.873
X344.692Y-145.785
X349.454Y-107.685
X349.454Y-183.885
X354.217Y-164.835
X358.979Y-126.735
X363.742Y-83.873
X363.742Y-145.785
X368.504Y-107.685
X368.504Y-183.885
X378.029Y-126.735
X380.41Y-164.835
X382.792Y-83.873
X382.798Y-154.025
X385.179Y-115.925
X394.698Y-145.785
X397.079Y-107.685
X400.069Y-189.167
X401.842Y-126.735
X406.598Y-154.025
X406.604Y-83.873
X408.979Y-115.925
X419.119Y-170.117
X419.119Y-189.167
X431.369Y-116.892
X438.169Y-189.167
X440.894Y-135.942
X450.419Y-116.892
X450.419Y-154.993
X459.944Y-135.942
X469.469Y-154.993
M30
