%TF.GenerationSoftware,KiCad,Pcbnew,10.0.3*%
%TF.CreationDate,2026-07-04T10:54:14-07:00*%
%TF.ProjectId,Gadgetpad,47616467-6574-4706-9164-2e6b69636164,rev?*%
%TF.SameCoordinates,Original*%
%TF.FileFunction,Soldermask,Bot*%
%TF.FilePolarity,Negative*%
%FSLAX46Y46*%
G04 Gerber Fmt 4.6, Leading zero omitted, Abs format (unit mm)*
G04 Created by KiCad (PCBNEW 10.0.3) date 2026-07-04 10:54:14*
%MOMM*%
%LPD*%
G01*
G04 APERTURE LIST*
G04 Aperture macros list*
%AMRoundRect*
0 Rectangle with rounded corners*
0 $1 Rounding radius*
0 $2 $3 $4 $5 $6 $7 $8 $9 X,Y pos of 4 corners*
0 Add a 4 corners polygon primitive as box body*
4,1,4,$2,$3,$4,$5,$6,$7,$8,$9,$2,$3,0*
0 Add four circle primitives for the rounded corners*
1,1,$1+$1,$2,$3*
1,1,$1+$1,$4,$5*
1,1,$1+$1,$6,$7*
1,1,$1+$1,$8,$9*
0 Add four rect primitives between the rounded corners*
20,1,$1+$1,$2,$3,$4,$5,0*
20,1,$1+$1,$4,$5,$6,$7,0*
20,1,$1+$1,$6,$7,$8,$9,0*
20,1,$1+$1,$8,$9,$2,$3,0*%
G04 Aperture macros list end*
%ADD10C,1.700000*%
%ADD11C,4.000000*%
%ADD12C,2.200000*%
%ADD13C,3.050000*%
%ADD14C,3.200000*%
%ADD15O,2.200000X3.500000*%
%ADD16R,1.500000X2.500000*%
%ADD17O,1.500000X2.500000*%
%ADD18R,1.700000X1.700000*%
%ADD19O,1.700000X1.700000*%
%ADD20R,1.800000X1.800000*%
%ADD21C,1.800000*%
%ADD22C,2.550000*%
%ADD23C,2.000000*%
%ADD24RoundRect,0.500000X0.500000X0.500000X-0.500000X0.500000X-0.500000X-0.500000X0.500000X-0.500000X0*%
%ADD25RoundRect,0.550000X1.150000X0.550000X-1.150000X0.550000X-1.150000X-0.550000X1.150000X-0.550000X0*%
%ADD26RoundRect,0.250000X-0.550000X-0.550000X0.550000X-0.550000X0.550000X0.550000X-0.550000X0.550000X0*%
%ADD27C,1.600000*%
%ADD28RoundRect,0.205000X0.470000X0.205000X-0.470000X0.205000X-0.470000X-0.205000X0.470000X-0.205000X0*%
%ADD29RoundRect,0.250000X0.550000X-0.550000X0.550000X0.550000X-0.550000X0.550000X-0.550000X-0.550000X0*%
%ADD30RoundRect,0.250000X0.550000X0.550000X-0.550000X0.550000X-0.550000X-0.550000X0.550000X-0.550000X0*%
G04 APERTURE END LIST*
D10*
%TO.C,SW73*%
X375330300Y-164835000D03*
D11*
X380410300Y-164835000D03*
D10*
X385490300Y-164835000D03*
D12*
X382950300Y-159755000D03*
X376600300Y-162295000D03*
%TD*%
D10*
%TO.C,SW53*%
X263411550Y-145785000D03*
D11*
X268491550Y-145785000D03*
D10*
X273571550Y-145785000D03*
D12*
X271031550Y-140705000D03*
X264681550Y-143245000D03*
%TD*%
D10*
%TO.C,SW71*%
X330086550Y-164835000D03*
D11*
X335166550Y-164835000D03*
D10*
X340246550Y-164835000D03*
D12*
X337706550Y-159755000D03*
X331356550Y-162295000D03*
%TD*%
D10*
%TO.C,SW44*%
X396761550Y-126735000D03*
D11*
X401841550Y-126735000D03*
D10*
X406921550Y-126735000D03*
D12*
X404381550Y-121655000D03*
X398031550Y-124195000D03*
%TD*%
D10*
%TO.C,SW58*%
X358661550Y-145785000D03*
D11*
X363741550Y-145785000D03*
D10*
X368821550Y-145785000D03*
D12*
X366281550Y-140705000D03*
X359931550Y-143245000D03*
%TD*%
D13*
%TO.C,SW78*%
X211347800Y-176885000D03*
D11*
X211347800Y-192125000D03*
D10*
X256267800Y-183885000D03*
D11*
X261347800Y-183885000D03*
D10*
X266427800Y-183885000D03*
D13*
X311347800Y-176885000D03*
D11*
X311347800Y-192125000D03*
D12*
X263887800Y-178805000D03*
X257537800Y-181345000D03*
%TD*%
D10*
%TO.C,SW52*%
X244361550Y-145785000D03*
D11*
X249441550Y-145785000D03*
D10*
X254521550Y-145785000D03*
D12*
X251981550Y-140705000D03*
X245631550Y-143245000D03*
%TD*%
D14*
%TO.C,H1*%
X125379050Y-69347500D03*
%TD*%
D10*
%TO.C,SW11*%
X339611550Y-83872500D03*
D11*
X344691550Y-83872500D03*
D10*
X349771550Y-83872500D03*
D12*
X347231550Y-78792500D03*
X340881550Y-81332500D03*
%TD*%
D10*
%TO.C,SW6*%
X239599050Y-83872500D03*
D11*
X244679050Y-83872500D03*
D10*
X249759050Y-83872500D03*
D12*
X247219050Y-78792500D03*
X240869050Y-81332500D03*
%TD*%
D10*
%TO.C,SW75*%
X137205300Y-183885000D03*
D11*
X142285300Y-183885000D03*
D10*
X147365300Y-183885000D03*
D12*
X144825300Y-178805000D03*
X138475300Y-181345000D03*
%TD*%
D10*
%TO.C,SW70*%
X311036550Y-164835000D03*
D11*
X316116550Y-164835000D03*
D10*
X321196550Y-164835000D03*
D12*
X318656550Y-159755000D03*
X312306550Y-162295000D03*
%TD*%
D10*
%TO.C,SW30*%
X445339050Y-116892500D03*
D11*
X450419050Y-116892500D03*
D10*
X455499050Y-116892500D03*
D12*
X452959050Y-111812500D03*
X446609050Y-114352500D03*
%TD*%
D10*
%TO.C,SW27*%
X363424050Y-107685000D03*
D11*
X368504050Y-107685000D03*
D10*
X373584050Y-107685000D03*
D12*
X371044050Y-102605000D03*
X364694050Y-105145000D03*
%TD*%
D10*
%TO.C,SW61*%
X464389050Y-154992500D03*
D11*
X469469050Y-154992500D03*
D10*
X474549050Y-154992500D03*
D12*
X472009050Y-149912500D03*
X465659050Y-152452500D03*
%TD*%
D10*
%TO.C,SW34*%
X201499050Y-126735000D03*
D11*
X206579050Y-126735000D03*
D10*
X211659050Y-126735000D03*
D12*
X209119050Y-121655000D03*
X202769050Y-124195000D03*
%TD*%
D10*
%TO.C,SW55*%
X301511550Y-145785000D03*
D11*
X306591550Y-145785000D03*
D10*
X311671550Y-145785000D03*
D12*
X309131550Y-140705000D03*
X302781550Y-143245000D03*
%TD*%
D10*
%TO.C,SW77*%
X184830300Y-183885000D03*
D11*
X189910300Y-183885000D03*
D10*
X194990300Y-183885000D03*
D12*
X192450300Y-178805000D03*
X186100300Y-181345000D03*
%TD*%
D13*
%TO.C,SW62*%
X139910300Y-157835000D03*
D11*
X139910300Y-173075000D03*
D10*
X146730300Y-164835000D03*
D11*
X151810300Y-164835000D03*
D10*
X156890300Y-164835000D03*
D13*
X163710300Y-157835000D03*
D11*
X163710300Y-173075000D03*
D12*
X154350300Y-159755000D03*
X148000300Y-162295000D03*
%TD*%
D10*
%TO.C,SW35*%
X220549050Y-126735000D03*
D11*
X225629050Y-126735000D03*
D10*
X230709050Y-126735000D03*
D12*
X228169050Y-121655000D03*
X221819050Y-124195000D03*
%TD*%
D15*
%TO.C,SW86*%
X509733550Y-83691500D03*
X501533550Y-83691500D03*
D16*
X507633550Y-83691500D03*
D17*
X505633550Y-83691500D03*
X503633550Y-83691500D03*
%TD*%
D18*
%TO.C,J2*%
X483439050Y-104827500D03*
D10*
X480899050Y-104827500D03*
%TD*%
D14*
%TO.C,H4*%
X525379050Y-209347500D03*
%TD*%
D10*
%TO.C,SW51*%
X225311550Y-145785000D03*
D11*
X230391550Y-145785000D03*
D10*
X235471550Y-145785000D03*
D12*
X232931550Y-140705000D03*
X226581550Y-143245000D03*
%TD*%
D10*
%TO.C,SW36*%
X239599050Y-126735000D03*
D11*
X244679050Y-126735000D03*
D10*
X249759050Y-126735000D03*
D12*
X247219050Y-121655000D03*
X240869050Y-124195000D03*
%TD*%
D18*
%TO.C,J1*%
X456179050Y-88127500D03*
D19*
X456179050Y-85587500D03*
X456179050Y-83047500D03*
X456179050Y-80507500D03*
%TD*%
D10*
%TO.C,SW38*%
X277699050Y-126735000D03*
D11*
X282779050Y-126735000D03*
D10*
X287859050Y-126735000D03*
D12*
X285319050Y-121655000D03*
X278969050Y-124195000D03*
%TD*%
D10*
%TO.C,SW7*%
X258649050Y-83872500D03*
D11*
X263729050Y-83872500D03*
D10*
X268809050Y-83872500D03*
D12*
X266269050Y-78792500D03*
X259919050Y-81332500D03*
%TD*%
D20*
%TO.C,VR1*%
X503914050Y-185392500D03*
D21*
X504714050Y-180142500D03*
X503914050Y-111892500D03*
X507414050Y-185392500D03*
X506614050Y-117142500D03*
X507414050Y-111892500D03*
D22*
X501414050Y-180042500D03*
X501414050Y-117242500D03*
X509914050Y-181242500D03*
X509914050Y-116042500D03*
%TD*%
D23*
%TO.C,SW85*%
X480779050Y-183527500D03*
X480779050Y-178527500D03*
D24*
X480779050Y-181027500D03*
D25*
X473279050Y-186627500D03*
X473279050Y-175427500D03*
D23*
X466279050Y-178527500D03*
X466279050Y-183527500D03*
%TD*%
D10*
%TO.C,SW47*%
X141967800Y-145785000D03*
D11*
X147047800Y-145785000D03*
D10*
X152127800Y-145785000D03*
D12*
X149587800Y-140705000D03*
X143237800Y-143245000D03*
%TD*%
D10*
%TO.C,SW19*%
X211024050Y-107685000D03*
D11*
X216104050Y-107685000D03*
D10*
X221184050Y-107685000D03*
D12*
X218644050Y-102605000D03*
X212294050Y-105145000D03*
%TD*%
D10*
%TO.C,SW4*%
X196736550Y-83872500D03*
D11*
X201816550Y-83872500D03*
D10*
X206896550Y-83872500D03*
D12*
X204356550Y-78792500D03*
X198006550Y-81332500D03*
%TD*%
D10*
%TO.C,SW63*%
X177686550Y-164835000D03*
D11*
X182766550Y-164835000D03*
D10*
X187846550Y-164835000D03*
D12*
X185306550Y-159755000D03*
X178956550Y-162295000D03*
%TD*%
D10*
%TO.C,SW42*%
X353899050Y-126735000D03*
D11*
X358979050Y-126735000D03*
D10*
X364059050Y-126735000D03*
D12*
X361519050Y-121655000D03*
X355169050Y-124195000D03*
%TD*%
D10*
%TO.C,SW26*%
X344374050Y-107685000D03*
D11*
X349454050Y-107685000D03*
D10*
X354534050Y-107685000D03*
D12*
X351994050Y-102605000D03*
X345644050Y-105145000D03*
%TD*%
D10*
%TO.C,SW48*%
X168161550Y-145785000D03*
D11*
X173241550Y-145785000D03*
D10*
X178321550Y-145785000D03*
D12*
X175781550Y-140705000D03*
X169431550Y-143245000D03*
%TD*%
D14*
%TO.C,H2*%
X325379050Y-69447500D03*
%TD*%
D10*
%TO.C,SW22*%
X268174050Y-107685000D03*
D11*
X273254050Y-107685000D03*
D10*
X278334050Y-107685000D03*
D12*
X275794050Y-102605000D03*
X269444050Y-105145000D03*
%TD*%
D10*
%TO.C,SW17*%
X172924050Y-107685000D03*
D11*
X178004050Y-107685000D03*
D10*
X183084050Y-107685000D03*
D12*
X180544050Y-102605000D03*
X174194050Y-105145000D03*
%TD*%
D10*
%TO.C,SW43*%
X372949050Y-126735000D03*
D11*
X378029050Y-126735000D03*
D10*
X383109050Y-126735000D03*
D12*
X380569050Y-121655000D03*
X374219050Y-124195000D03*
%TD*%
D10*
%TO.C,SW24*%
X306274050Y-107685000D03*
D11*
X311354050Y-107685000D03*
D10*
X316434050Y-107685000D03*
D12*
X313894050Y-102605000D03*
X307544050Y-105145000D03*
%TD*%
D10*
%TO.C,SW84*%
X433089050Y-189167500D03*
D11*
X438169050Y-189167500D03*
D10*
X443249050Y-189167500D03*
D12*
X440709050Y-184087500D03*
X434359050Y-186627500D03*
%TD*%
D10*
%TO.C,SW74*%
X414039050Y-170117500D03*
D11*
X419119050Y-170117500D03*
D10*
X424199050Y-170117500D03*
D12*
X421659050Y-165037500D03*
X415309050Y-167577500D03*
%TD*%
D10*
%TO.C,SW32*%
X163399050Y-126735000D03*
D11*
X168479050Y-126735000D03*
D10*
X173559050Y-126735000D03*
D12*
X171019050Y-121655000D03*
X164669050Y-124195000D03*
%TD*%
D13*
%TO.C,SW28*%
X385179050Y-100685000D03*
D11*
X385179050Y-115925000D03*
D10*
X391999050Y-107685000D03*
D11*
X397079050Y-107685000D03*
D10*
X402159050Y-107685000D03*
D13*
X408979050Y-100685000D03*
D11*
X408979050Y-115925000D03*
D12*
X399619050Y-102605000D03*
X393269050Y-105145000D03*
%TD*%
D10*
%TO.C,SW81*%
X363424050Y-183885000D03*
D11*
X368504050Y-183885000D03*
D10*
X373584050Y-183885000D03*
D12*
X371044050Y-178805000D03*
X364694050Y-181345000D03*
%TD*%
D10*
%TO.C,SW72*%
X349136550Y-164835000D03*
D11*
X354216550Y-164835000D03*
D10*
X359296550Y-164835000D03*
D12*
X356756550Y-159755000D03*
X350406550Y-162295000D03*
%TD*%
D10*
%TO.C,SW21*%
X249124050Y-107685000D03*
D11*
X254204050Y-107685000D03*
D10*
X259284050Y-107685000D03*
D12*
X256744050Y-102605000D03*
X250394050Y-105145000D03*
%TD*%
D10*
%TO.C,SW67*%
X253886550Y-164835000D03*
D11*
X258966550Y-164835000D03*
D10*
X264046550Y-164835000D03*
D12*
X261506550Y-159755000D03*
X255156550Y-162295000D03*
%TD*%
D10*
%TO.C,SW12*%
X358661550Y-83872500D03*
D11*
X363741550Y-83872500D03*
D10*
X368821550Y-83872500D03*
D12*
X366281550Y-78792500D03*
X359931550Y-81332500D03*
%TD*%
D10*
%TO.C,SW69*%
X291986550Y-164835000D03*
D11*
X297066550Y-164835000D03*
D10*
X302146550Y-164835000D03*
D12*
X299606550Y-159755000D03*
X293256550Y-162295000D03*
%TD*%
D10*
%TO.C,SW29*%
X426289050Y-116892500D03*
D11*
X431369050Y-116892500D03*
D10*
X436449050Y-116892500D03*
D12*
X433909050Y-111812500D03*
X427559050Y-114352500D03*
%TD*%
D10*
%TO.C,SW68*%
X272936550Y-164835000D03*
D11*
X278016550Y-164835000D03*
D10*
X283096550Y-164835000D03*
D12*
X280556550Y-159755000D03*
X274206550Y-162295000D03*
%TD*%
D10*
%TO.C,SW5*%
X215786550Y-83872500D03*
D11*
X220866550Y-83872500D03*
D10*
X225946550Y-83872500D03*
D12*
X223406550Y-78792500D03*
X217056550Y-81332500D03*
%TD*%
D10*
%TO.C,SW31*%
X139586550Y-126735000D03*
D11*
X144666550Y-126735000D03*
D10*
X149746550Y-126735000D03*
D12*
X147206550Y-121655000D03*
X140856550Y-124195000D03*
%TD*%
D10*
%TO.C,SW46*%
X454864050Y-135942500D03*
D11*
X459944050Y-135942500D03*
D10*
X465024050Y-135942500D03*
D12*
X462484050Y-130862500D03*
X456134050Y-133402500D03*
%TD*%
D10*
%TO.C,SW16*%
X153874050Y-107685000D03*
D11*
X158954050Y-107685000D03*
D10*
X164034050Y-107685000D03*
D12*
X161494050Y-102605000D03*
X155144050Y-105145000D03*
%TD*%
D10*
%TO.C,SW2*%
X158636550Y-83872500D03*
D11*
X163716550Y-83872500D03*
D10*
X168796550Y-83872500D03*
D12*
X166256550Y-78792500D03*
X159906550Y-81332500D03*
%TD*%
D13*
%TO.C,SW59*%
X382797800Y-138785000D03*
D11*
X382797800Y-154025000D03*
D10*
X389617800Y-145785000D03*
D11*
X394697800Y-145785000D03*
D10*
X399777800Y-145785000D03*
D13*
X406597800Y-138785000D03*
D11*
X406597800Y-154025000D03*
D12*
X397237800Y-140705000D03*
X390887800Y-143245000D03*
%TD*%
D10*
%TO.C,SW57*%
X339611550Y-145785000D03*
D11*
X344691550Y-145785000D03*
D10*
X349771550Y-145785000D03*
D12*
X347231550Y-140705000D03*
X340881550Y-143245000D03*
%TD*%
D10*
%TO.C,SW9*%
X296749050Y-83872500D03*
D11*
X301829050Y-83872500D03*
D10*
X306909050Y-83872500D03*
D12*
X304369050Y-78792500D03*
X298019050Y-81332500D03*
%TD*%
D10*
%TO.C,SW39*%
X296749050Y-126735000D03*
D11*
X301829050Y-126735000D03*
D10*
X306909050Y-126735000D03*
D12*
X304369050Y-121655000D03*
X298019050Y-124195000D03*
%TD*%
D10*
%TO.C,SW50*%
X206261550Y-145785000D03*
D11*
X211341550Y-145785000D03*
D10*
X216421550Y-145785000D03*
D12*
X213881550Y-140705000D03*
X207531550Y-143245000D03*
%TD*%
D10*
%TO.C,SW15*%
X134824050Y-107685000D03*
D11*
X139904050Y-107685000D03*
D10*
X144984050Y-107685000D03*
D12*
X142444050Y-102605000D03*
X136094050Y-105145000D03*
%TD*%
D10*
%TO.C,SW23*%
X287224050Y-107685000D03*
D11*
X292304050Y-107685000D03*
D10*
X297384050Y-107685000D03*
D12*
X294844050Y-102605000D03*
X288494050Y-105145000D03*
%TD*%
D10*
%TO.C,SW13*%
X377711550Y-83872500D03*
D11*
X382791550Y-83872500D03*
D10*
X387871550Y-83872500D03*
D12*
X385331550Y-78792500D03*
X378981550Y-81332500D03*
%TD*%
D10*
%TO.C,SW64*%
X196736550Y-164835000D03*
D11*
X201816550Y-164835000D03*
D10*
X206896550Y-164835000D03*
D12*
X204356550Y-159755000D03*
X198006550Y-162295000D03*
%TD*%
D14*
%TO.C,H3*%
X525379050Y-69447500D03*
%TD*%
%TO.C,H5*%
X325479050Y-209347500D03*
%TD*%
%TO.C,H6*%
X125379050Y-209347500D03*
%TD*%
D10*
%TO.C,SW14*%
X401524050Y-83872500D03*
D11*
X406604050Y-83872500D03*
D10*
X411684050Y-83872500D03*
D12*
X409144050Y-78792500D03*
X402794050Y-81332500D03*
%TD*%
D10*
%TO.C,SW80*%
X344374050Y-183885000D03*
D11*
X349454050Y-183885000D03*
D10*
X354534050Y-183885000D03*
D12*
X351994050Y-178805000D03*
X345644050Y-181345000D03*
%TD*%
D10*
%TO.C,SW65*%
X215786550Y-164835000D03*
D11*
X220866550Y-164835000D03*
D10*
X225946550Y-164835000D03*
D12*
X223406550Y-159755000D03*
X217056550Y-162295000D03*
%TD*%
D10*
%TO.C,SW40*%
X315799050Y-126735000D03*
D11*
X320879050Y-126735000D03*
D10*
X325959050Y-126735000D03*
D12*
X323419050Y-121655000D03*
X317069050Y-124195000D03*
%TD*%
D10*
%TO.C,SW8*%
X277699050Y-83872500D03*
D11*
X282779050Y-83872500D03*
D10*
X287859050Y-83872500D03*
D12*
X285319050Y-78792500D03*
X278969050Y-81332500D03*
%TD*%
D10*
%TO.C,SW66*%
X234836550Y-164835000D03*
D11*
X239916550Y-164835000D03*
D10*
X244996550Y-164835000D03*
D12*
X242456550Y-159755000D03*
X236106550Y-162295000D03*
%TD*%
D10*
%TO.C,SW56*%
X320561550Y-145785000D03*
D11*
X325641550Y-145785000D03*
D10*
X330721550Y-145785000D03*
D12*
X328181550Y-140705000D03*
X321831550Y-143245000D03*
%TD*%
D10*
%TO.C,SW76*%
X161017800Y-183885000D03*
D11*
X166097800Y-183885000D03*
D10*
X171177800Y-183885000D03*
D12*
X168637800Y-178805000D03*
X162287800Y-181345000D03*
%TD*%
D26*
%TO.C,D172*%
X451494050Y-75622500D03*
D27*
X459114050Y-75622500D03*
%TD*%
D10*
%TO.C,SW83*%
X414039050Y-189167500D03*
D11*
X419119050Y-189167500D03*
D10*
X424199050Y-189167500D03*
D12*
X421659050Y-184087500D03*
X415309050Y-186627500D03*
%TD*%
D10*
%TO.C,SW79*%
X325324050Y-183885000D03*
D11*
X330404050Y-183885000D03*
D10*
X335484050Y-183885000D03*
D12*
X332944050Y-178805000D03*
X326594050Y-181345000D03*
%TD*%
D10*
%TO.C,SW20*%
X230074050Y-107685000D03*
D11*
X235154050Y-107685000D03*
D10*
X240234050Y-107685000D03*
D12*
X237694050Y-102605000D03*
X231344050Y-105145000D03*
%TD*%
D10*
%TO.C,SW3*%
X177686550Y-83872500D03*
D11*
X182766550Y-83872500D03*
D10*
X187846550Y-83872500D03*
D12*
X185306550Y-78792500D03*
X178956550Y-81332500D03*
%TD*%
D10*
%TO.C,SW18*%
X191974050Y-107685000D03*
D11*
X197054050Y-107685000D03*
D10*
X202134050Y-107685000D03*
D12*
X199594050Y-102605000D03*
X193244050Y-105145000D03*
%TD*%
D10*
%TO.C,SW25*%
X325324050Y-107685000D03*
D11*
X330404050Y-107685000D03*
D10*
X335484050Y-107685000D03*
D12*
X332944050Y-102605000D03*
X326594050Y-105145000D03*
%TD*%
D10*
%TO.C,SW54*%
X282461550Y-145785000D03*
D11*
X287541550Y-145785000D03*
D10*
X292621550Y-145785000D03*
D12*
X290081550Y-140705000D03*
X283731550Y-143245000D03*
%TD*%
D10*
%TO.C,SW45*%
X435814050Y-135942500D03*
D11*
X440894050Y-135942500D03*
D10*
X445974050Y-135942500D03*
D12*
X443434050Y-130862500D03*
X437084050Y-133402500D03*
%TD*%
D10*
%TO.C,SW10*%
X320561550Y-83872500D03*
D11*
X325641550Y-83872500D03*
D10*
X330721550Y-83872500D03*
D12*
X328181550Y-78792500D03*
X321831550Y-81332500D03*
%TD*%
D10*
%TO.C,SW41*%
X334849050Y-126735000D03*
D11*
X339929050Y-126735000D03*
D10*
X345009050Y-126735000D03*
D12*
X342469050Y-121655000D03*
X336119050Y-124195000D03*
%TD*%
D10*
%TO.C,SW37*%
X258649050Y-126735000D03*
D11*
X263729050Y-126735000D03*
D10*
X268809050Y-126735000D03*
D12*
X266269050Y-121655000D03*
X259919050Y-124195000D03*
%TD*%
D10*
%TO.C,SW33*%
X182449050Y-126735000D03*
D11*
X187529050Y-126735000D03*
D10*
X192609050Y-126735000D03*
D12*
X190069050Y-121655000D03*
X183719050Y-124195000D03*
%TD*%
D10*
%TO.C,SW82*%
X394989050Y-189167500D03*
D11*
X400069050Y-189167500D03*
D10*
X405149050Y-189167500D03*
D12*
X402609050Y-184087500D03*
X396259050Y-186627500D03*
%TD*%
D10*
%TO.C,SW1*%
X134824050Y-83872500D03*
D11*
X139904050Y-83872500D03*
D10*
X144984050Y-83872500D03*
D12*
X142444050Y-78792500D03*
X136094050Y-81332500D03*
%TD*%
D10*
%TO.C,SW60*%
X445339050Y-154992500D03*
D11*
X450419050Y-154992500D03*
D10*
X455499050Y-154992500D03*
D12*
X452959050Y-149912500D03*
X446609050Y-152452500D03*
%TD*%
D10*
%TO.C,SW49*%
X187211550Y-145785000D03*
D11*
X192291550Y-145785000D03*
D10*
X197371550Y-145785000D03*
D12*
X194831550Y-140705000D03*
X188481550Y-143245000D03*
%TD*%
D28*
%TO.C,D147*%
X397411350Y-151763250D03*
X397411350Y-150263250D03*
X391961350Y-150263250D03*
X391961350Y-151763250D03*
%TD*%
%TO.C,D124*%
X252175000Y-151784050D03*
X252175000Y-150284050D03*
X246725000Y-150284050D03*
X246725000Y-151784050D03*
%TD*%
D29*
%TO.C,D58*%
X371361550Y-144705000D03*
D27*
X371361550Y-137085000D03*
%TD*%
D28*
%TO.C,D110*%
X314079050Y-113665000D03*
X314079050Y-112165000D03*
X308629050Y-112165000D03*
X308629050Y-113665000D03*
%TD*%
D29*
%TO.C,D22*%
X280874050Y-106605000D03*
D27*
X280874050Y-98985000D03*
%TD*%
D28*
%TO.C,D156*%
X239305650Y-189872900D03*
X239305650Y-188372900D03*
X233855650Y-188372900D03*
X233855650Y-189872900D03*
%TD*%
%TO.C,D146*%
X402783450Y-195145100D03*
X402783450Y-193645100D03*
X397333450Y-193645100D03*
X397333450Y-195145100D03*
%TD*%
%TO.C,D122*%
X271224150Y-151775950D03*
X271224150Y-150275950D03*
X265774150Y-150275950D03*
X265774150Y-151775950D03*
%TD*%
%TO.C,D134*%
X149772800Y-151765000D03*
X149772800Y-150265000D03*
X144322800Y-150265000D03*
X144322800Y-151765000D03*
%TD*%
D29*
%TO.C,D25*%
X338024050Y-106605000D03*
D27*
X338024050Y-98985000D03*
%TD*%
D28*
%TO.C,D119*%
X147361050Y-132715000D03*
X147361050Y-131215000D03*
X141911050Y-131215000D03*
X141911050Y-132715000D03*
%TD*%
D29*
%TO.C,D35*%
X233249050Y-125655000D03*
D27*
X233249050Y-118035000D03*
%TD*%
D28*
%TO.C,D144*%
X421833450Y-195138750D03*
X421833450Y-193638750D03*
X416383450Y-193638750D03*
X416383450Y-195138750D03*
%TD*%
%TO.C,D129*%
X247373550Y-132715000D03*
X247373550Y-131215000D03*
X241923550Y-131215000D03*
X241923550Y-132715000D03*
%TD*%
%TO.C,D88*%
X166441550Y-89852500D03*
X166441550Y-88352500D03*
X160991550Y-88352500D03*
X160991550Y-89852500D03*
%TD*%
%TO.C,D96*%
X328366550Y-89852500D03*
X328366550Y-88352500D03*
X322916550Y-88352500D03*
X322916550Y-89852500D03*
%TD*%
D29*
%TO.C,D64*%
X209436550Y-163755000D03*
D27*
X209436550Y-156135000D03*
%TD*%
D29*
%TO.C,D70*%
X323736550Y-163755000D03*
D27*
X323736550Y-156135000D03*
%TD*%
D30*
%TO.C,D85*%
X456134050Y-95302500D03*
D27*
X448514050Y-95302500D03*
%TD*%
D28*
%TO.C,D135*%
X304535000Y-132715000D03*
X304535000Y-131215000D03*
X299085000Y-131215000D03*
X299085000Y-132715000D03*
%TD*%
D29*
%TO.C,D41*%
X347549050Y-125655000D03*
D27*
X347549050Y-118035000D03*
%TD*%
D29*
%TO.C,D19*%
X223724050Y-106605000D03*
D27*
X223724050Y-98985000D03*
%TD*%
D28*
%TO.C,D101*%
X142629050Y-113665000D03*
X142629050Y-112165000D03*
X137179050Y-112165000D03*
X137179050Y-113665000D03*
%TD*%
D29*
%TO.C,D74*%
X426739050Y-169037500D03*
D27*
X426739050Y-161417500D03*
%TD*%
D28*
%TO.C,D115*%
X434094050Y-122872500D03*
X434094050Y-121372500D03*
X428644050Y-121372500D03*
X428644050Y-122872500D03*
%TD*%
%TO.C,D137*%
X323573550Y-132750000D03*
X323573550Y-131250000D03*
X318123550Y-131250000D03*
X318123550Y-132750000D03*
%TD*%
D29*
%TO.C,D79*%
X338024050Y-182805000D03*
D27*
X338024050Y-175185000D03*
%TD*%
D29*
%TO.C,D82*%
X407689050Y-188087500D03*
D27*
X407689050Y-180467500D03*
%TD*%
D29*
%TO.C,D59*%
X402317800Y-144705000D03*
D27*
X402317800Y-137085000D03*
%TD*%
D28*
%TO.C,D95*%
X304554050Y-89852500D03*
X304554050Y-88352500D03*
X299104050Y-88352500D03*
X299104050Y-89852500D03*
%TD*%
D29*
%TO.C,D40*%
X328499050Y-125655000D03*
D27*
X328499050Y-118035000D03*
%TD*%
D28*
%TO.C,D170*%
X337860200Y-170817550D03*
X337860200Y-169317550D03*
X332410200Y-169317550D03*
X332410200Y-170817550D03*
%TD*%
D29*
%TO.C,D42*%
X366599050Y-125655000D03*
D27*
X366599050Y-118035000D03*
%TD*%
D28*
%TO.C,D162*%
X145035250Y-189879550D03*
X145035250Y-188379550D03*
X139585250Y-188379550D03*
X139585250Y-189879550D03*
%TD*%
%TO.C,D167*%
X299806750Y-170850950D03*
X299806750Y-169350950D03*
X294356750Y-169350950D03*
X294356750Y-170850950D03*
%TD*%
%TO.C,D103*%
X180729050Y-113665000D03*
X180729050Y-112165000D03*
X175279050Y-112165000D03*
X175279050Y-113665000D03*
%TD*%
D29*
%TO.C,D66*%
X247536550Y-163755000D03*
D27*
X247536550Y-156135000D03*
%TD*%
D28*
%TO.C,D140*%
X404594050Y-132733000D03*
X404594050Y-131233000D03*
X399144050Y-131233000D03*
X399144050Y-132733000D03*
%TD*%
D29*
%TO.C,D71*%
X342786550Y-163755000D03*
D27*
X342786550Y-156135000D03*
%TD*%
D29*
%TO.C,D15*%
X147524050Y-106605000D03*
D27*
X147524050Y-98985000D03*
%TD*%
D29*
%TO.C,D56*%
X333261550Y-144705000D03*
D27*
X333261550Y-137085000D03*
%TD*%
D29*
%TO.C,D39*%
X309449050Y-125655000D03*
D27*
X309449050Y-118035000D03*
%TD*%
D28*
%TO.C,D160*%
X168791450Y-189867550D03*
X168791450Y-188367550D03*
X163341450Y-188367550D03*
X163341450Y-189867550D03*
%TD*%
D29*
%TO.C,D48*%
X180861550Y-144705000D03*
D27*
X180861550Y-137085000D03*
%TD*%
D28*
%TO.C,D109*%
X295029050Y-113665000D03*
X295029050Y-112165000D03*
X289579050Y-112165000D03*
X289579050Y-113665000D03*
%TD*%
%TO.C,D126*%
X233124150Y-151765000D03*
X233124150Y-150265000D03*
X227674150Y-150265000D03*
X227674150Y-151765000D03*
%TD*%
D29*
%TO.C,D75*%
X149905300Y-182805000D03*
D27*
X149905300Y-175185000D03*
%TD*%
D29*
%TO.C,D2*%
X171336550Y-82792500D03*
D27*
X171336550Y-75172500D03*
%TD*%
D28*
%TO.C,D120*%
X290236050Y-151775950D03*
X290236050Y-150275950D03*
X284786050Y-150275950D03*
X284786050Y-151775950D03*
%TD*%
D29*
%TO.C,D62*%
X159430300Y-163755000D03*
D27*
X159430300Y-156135000D03*
%TD*%
D29*
%TO.C,D11*%
X352311550Y-82792500D03*
D27*
X352311550Y-75172500D03*
%TD*%
D28*
%TO.C,D169*%
X318838550Y-170820850D03*
X318838550Y-169320850D03*
X313388550Y-169320850D03*
X313388550Y-170820850D03*
%TD*%
D29*
%TO.C,D33*%
X195149050Y-125655000D03*
D27*
X195149050Y-118035000D03*
%TD*%
D28*
%TO.C,D131*%
X266442600Y-132714600D03*
X266442600Y-131214600D03*
X260992600Y-131214600D03*
X260992600Y-132714600D03*
%TD*%
%TO.C,D159*%
X223588550Y-170829900D03*
X223588550Y-169329900D03*
X218138550Y-169329900D03*
X218138550Y-170829900D03*
%TD*%
%TO.C,D154*%
X288853850Y-189851800D03*
X288853850Y-188351800D03*
X283403850Y-188351800D03*
X283403850Y-189851800D03*
%TD*%
%TO.C,D87*%
X142629050Y-89852500D03*
X142629050Y-88352500D03*
X137179050Y-88352500D03*
X137179050Y-89852500D03*
%TD*%
D29*
%TO.C,D29*%
X438989050Y-115812500D03*
D27*
X438989050Y-108192500D03*
%TD*%
D28*
%TO.C,D155*%
X185491550Y-170820000D03*
X185491550Y-169320000D03*
X180041550Y-169320000D03*
X180041550Y-170820000D03*
%TD*%
%TO.C,D89*%
X185491550Y-89852500D03*
X185491550Y-88352500D03*
X180041550Y-88352500D03*
X180041550Y-89852500D03*
%TD*%
D29*
%TO.C,D55*%
X314211550Y-144705000D03*
D27*
X314211550Y-137085000D03*
%TD*%
D28*
%TO.C,D127*%
X228381550Y-132738000D03*
X228381550Y-131238000D03*
X222931550Y-131238000D03*
X222931550Y-132738000D03*
%TD*%
D29*
%TO.C,D60*%
X458039050Y-153912500D03*
D27*
X458039050Y-146292500D03*
%TD*%
D28*
%TO.C,D130*%
X195005100Y-151761900D03*
X195005100Y-150261900D03*
X189555100Y-150261900D03*
X189555100Y-151761900D03*
%TD*%
D29*
%TO.C,D28*%
X404699050Y-106605000D03*
D27*
X404699050Y-98985000D03*
%TD*%
D28*
%TO.C,D118*%
X309325000Y-151763950D03*
X309325000Y-150263950D03*
X303875000Y-150263950D03*
X303875000Y-151763950D03*
%TD*%
D29*
%TO.C,D68*%
X285636550Y-163755000D03*
D27*
X285636550Y-156135000D03*
%TD*%
D29*
%TO.C,D80*%
X357074050Y-182805000D03*
D27*
X357074050Y-175185000D03*
%TD*%
D28*
%TO.C,D163*%
X261687700Y-170822850D03*
X261687700Y-169322850D03*
X256237700Y-169322850D03*
X256237700Y-170822850D03*
%TD*%
D29*
%TO.C,D73*%
X388030300Y-163755000D03*
D27*
X388030300Y-156135000D03*
%TD*%
D29*
%TO.C,D69*%
X304686550Y-163755000D03*
D27*
X304686550Y-156135000D03*
%TD*%
D29*
%TO.C,D38*%
X290399050Y-125655000D03*
D27*
X290399050Y-118035000D03*
%TD*%
D28*
%TO.C,D108*%
X275979050Y-113665000D03*
X275979050Y-112165000D03*
X270529050Y-112165000D03*
X270529050Y-113665000D03*
%TD*%
D29*
%TO.C,D8*%
X290399050Y-82792500D03*
D27*
X290399050Y-75172500D03*
%TD*%
D29*
%TO.C,D54*%
X295161550Y-144705000D03*
D27*
X295161550Y-137085000D03*
%TD*%
D29*
%TO.C,D49*%
X199911550Y-144705000D03*
D27*
X199911550Y-137085000D03*
%TD*%
D29*
%TO.C,D31*%
X152286550Y-125655000D03*
D27*
X152286550Y-118035000D03*
%TD*%
D28*
%TO.C,D106*%
X237879050Y-113665000D03*
X237879050Y-112165000D03*
X232429050Y-112165000D03*
X232429050Y-113665000D03*
%TD*%
%TO.C,D90*%
X204541550Y-89852500D03*
X204541550Y-88352500D03*
X199091550Y-88352500D03*
X199091550Y-89852500D03*
%TD*%
D29*
%TO.C,D13*%
X390411550Y-82792500D03*
D27*
X390411550Y-75172500D03*
%TD*%
D28*
%TO.C,D91*%
X223591550Y-89852500D03*
X223591550Y-88352500D03*
X218141550Y-88352500D03*
X218141550Y-89852500D03*
%TD*%
%TO.C,D136*%
X462638550Y-141894000D03*
X462638550Y-140394000D03*
X457188550Y-140394000D03*
X457188550Y-141894000D03*
%TD*%
%TO.C,D93*%
X266454050Y-89852500D03*
X266454050Y-88352500D03*
X261004050Y-88352500D03*
X261004050Y-89852500D03*
%TD*%
%TO.C,D104*%
X199779050Y-113665000D03*
X199779050Y-112165000D03*
X194329050Y-112165000D03*
X194329050Y-113665000D03*
%TD*%
D29*
%TO.C,D61*%
X477089050Y-153912500D03*
D27*
X477089050Y-146292500D03*
%TD*%
D29*
%TO.C,D30*%
X458039050Y-115812500D03*
D27*
X458039050Y-108192500D03*
%TD*%
D29*
%TO.C,D57*%
X352311550Y-144705000D03*
D27*
X352311550Y-137085000D03*
%TD*%
D28*
%TO.C,D116*%
X328355100Y-151760000D03*
X328355100Y-150260000D03*
X322905100Y-150260000D03*
X322905100Y-151760000D03*
%TD*%
%TO.C,D145*%
X366455100Y-151756900D03*
X366455100Y-150256900D03*
X361005100Y-150256900D03*
X361005100Y-151756900D03*
%TD*%
D29*
%TO.C,D20*%
X242774050Y-106605000D03*
D27*
X242774050Y-98985000D03*
%TD*%
D28*
%TO.C,D148*%
X371217600Y-189875950D03*
X371217600Y-188375950D03*
X365767600Y-188375950D03*
X365767600Y-189875950D03*
%TD*%
D29*
%TO.C,D7*%
X271349050Y-82792500D03*
D27*
X271349050Y-75172500D03*
%TD*%
D28*
%TO.C,D92*%
X247404050Y-89852500D03*
X247404050Y-88352500D03*
X241954050Y-88352500D03*
X241954050Y-89852500D03*
%TD*%
D29*
%TO.C,D12*%
X371361550Y-82792500D03*
D27*
X371361550Y-75172500D03*
%TD*%
D29*
%TO.C,D76*%
X173717800Y-182805000D03*
D27*
X173717800Y-175185000D03*
%TD*%
D29*
%TO.C,D63*%
X190386550Y-163755000D03*
D27*
X190386550Y-156135000D03*
%TD*%
D26*
%TO.C,D86*%
X480868550Y-95228500D03*
D27*
X488488550Y-95228500D03*
%TD*%
D28*
%TO.C,D138*%
X443588550Y-141894000D03*
X443588550Y-140394000D03*
X438138550Y-140394000D03*
X438138550Y-141894000D03*
%TD*%
%TO.C,D113*%
X371229050Y-113665000D03*
X371229050Y-112165000D03*
X365779050Y-112165000D03*
X365779050Y-113665000D03*
%TD*%
D29*
%TO.C,D36*%
X252299050Y-125655000D03*
D27*
X252299050Y-118035000D03*
%TD*%
D29*
%TO.C,D81*%
X376124050Y-182805000D03*
D27*
X376124050Y-175185000D03*
%TD*%
D28*
%TO.C,D165*%
X280757600Y-170815850D03*
X280757600Y-169315850D03*
X275307600Y-169315850D03*
X275307600Y-170815850D03*
%TD*%
D29*
%TO.C,D9*%
X309449050Y-82792500D03*
D27*
X309449050Y-75172500D03*
%TD*%
D28*
%TO.C,D114*%
X399804050Y-113665000D03*
X399804050Y-112165000D03*
X394354050Y-112165000D03*
X394354050Y-113665000D03*
%TD*%
%TO.C,D98*%
X366466550Y-89852500D03*
X366466550Y-88352500D03*
X361016550Y-88352500D03*
X361016550Y-89852500D03*
%TD*%
D29*
%TO.C,D34*%
X214199050Y-125655000D03*
D27*
X214199050Y-118035000D03*
%TD*%
D29*
%TO.C,D51*%
X238011550Y-144705000D03*
D27*
X238011550Y-137085000D03*
%TD*%
D28*
%TO.C,D123*%
X190281550Y-132733000D03*
X190281550Y-131233000D03*
X184831550Y-131233000D03*
X184831550Y-132733000D03*
%TD*%
%TO.C,D133*%
X285504050Y-132720000D03*
X285504050Y-131220000D03*
X280054050Y-131220000D03*
X280054050Y-132720000D03*
%TD*%
%TO.C,D125*%
X209331550Y-132745000D03*
X209331550Y-131245000D03*
X203881550Y-131245000D03*
X203881550Y-132745000D03*
%TD*%
%TO.C,D128*%
X214074150Y-151765000D03*
X214074150Y-150265000D03*
X208624150Y-150265000D03*
X208624150Y-151765000D03*
%TD*%
%TO.C,D112*%
X352179050Y-113665000D03*
X352179050Y-112165000D03*
X346729050Y-112165000D03*
X346729050Y-113665000D03*
%TD*%
D29*
%TO.C,D24*%
X318974050Y-106605000D03*
D27*
X318974050Y-98985000D03*
%TD*%
D29*
%TO.C,D6*%
X252299050Y-82792500D03*
D27*
X252299050Y-75172500D03*
%TD*%
D29*
%TO.C,D14*%
X414224050Y-82792500D03*
D27*
X414224050Y-75172500D03*
%TD*%
D28*
%TO.C,D152*%
X333137500Y-189878950D03*
X333137500Y-188378950D03*
X327687500Y-188378950D03*
X327687500Y-189878950D03*
%TD*%
D29*
%TO.C,D43*%
X385649050Y-127687500D03*
D27*
X385649050Y-120067500D03*
%TD*%
D28*
%TO.C,D158*%
X192643750Y-189873950D03*
X192643750Y-188373950D03*
X187193750Y-188373950D03*
X187193750Y-189873950D03*
%TD*%
D29*
%TO.C,D83*%
X426739050Y-188087500D03*
D27*
X426739050Y-180467500D03*
%TD*%
D29*
%TO.C,D77*%
X197530300Y-182805000D03*
D27*
X197530300Y-175185000D03*
%TD*%
D28*
%TO.C,D121*%
X171173550Y-132715000D03*
X171173550Y-131215000D03*
X165723550Y-131215000D03*
X165723550Y-132715000D03*
%TD*%
%TO.C,D149*%
X453151650Y-160983450D03*
X453151650Y-159483450D03*
X447701650Y-159483450D03*
X447701650Y-160983450D03*
%TD*%
D29*
%TO.C,D4*%
X209436550Y-82792500D03*
D27*
X209436550Y-75172500D03*
%TD*%
D28*
%TO.C,D111*%
X333129050Y-113665000D03*
X333129050Y-112165000D03*
X327679050Y-112165000D03*
X327679050Y-113665000D03*
%TD*%
%TO.C,D153*%
X154542900Y-170816900D03*
X154542900Y-169316900D03*
X149092900Y-169316900D03*
X149092900Y-170816900D03*
%TD*%
%TO.C,D150*%
X352187500Y-189868950D03*
X352187500Y-188368950D03*
X346737500Y-188368950D03*
X346737500Y-189868950D03*
%TD*%
D29*
%TO.C,D67*%
X266586550Y-163755000D03*
D27*
X266586550Y-156135000D03*
%TD*%
D29*
%TO.C,D21*%
X261824050Y-106605000D03*
D27*
X261824050Y-98985000D03*
%TD*%
D28*
%TO.C,D100*%
X409329050Y-89852500D03*
X409329050Y-88352500D03*
X403879050Y-88352500D03*
X403879050Y-89852500D03*
%TD*%
%TO.C,D166*%
X383142050Y-170817550D03*
X383142050Y-169317550D03*
X377692050Y-169317550D03*
X377692050Y-170817550D03*
%TD*%
D29*
%TO.C,D78*%
X268967800Y-182805000D03*
D27*
X268967800Y-175185000D03*
%TD*%
D29*
%TO.C,D32*%
X176099050Y-125655000D03*
D27*
X176099050Y-118035000D03*
%TD*%
D28*
%TO.C,D151*%
X472182600Y-160977100D03*
X472182600Y-159477100D03*
X466732600Y-159477100D03*
X466732600Y-160977100D03*
%TD*%
D29*
%TO.C,D84*%
X445789050Y-188087500D03*
D27*
X445789050Y-180467500D03*
%TD*%
D29*
%TO.C,D5*%
X228486550Y-82792500D03*
D27*
X228486550Y-75172500D03*
%TD*%
D28*
%TO.C,D99*%
X385516550Y-89852500D03*
X385516550Y-88352500D03*
X380066550Y-88352500D03*
X380066550Y-89852500D03*
%TD*%
D29*
%TO.C,D18*%
X204674050Y-106605000D03*
D27*
X204674050Y-98985000D03*
%TD*%
D28*
%TO.C,D161*%
X242637700Y-170830950D03*
X242637700Y-169330950D03*
X237187700Y-169330950D03*
X237187700Y-170830950D03*
%TD*%
D29*
%TO.C,D65*%
X228486550Y-163755000D03*
D27*
X228486550Y-156135000D03*
%TD*%
D29*
%TO.C,D23*%
X299924050Y-106605000D03*
D27*
X299924050Y-98985000D03*
%TD*%
D28*
%TO.C,D132*%
X175994050Y-151802050D03*
X175994050Y-150302050D03*
X170544050Y-150302050D03*
X170544050Y-151802050D03*
%TD*%
%TO.C,D97*%
X347416550Y-89852500D03*
X347416550Y-88352500D03*
X341966550Y-88352500D03*
X341966550Y-89852500D03*
%TD*%
D29*
%TO.C,D26*%
X357074050Y-106605000D03*
D27*
X357074050Y-98985000D03*
%TD*%
D28*
%TO.C,D107*%
X256929050Y-113665000D03*
X256929050Y-112165000D03*
X251479050Y-112165000D03*
X251479050Y-113665000D03*
%TD*%
D29*
%TO.C,D52*%
X257061550Y-144705000D03*
D27*
X257061550Y-137085000D03*
%TD*%
D28*
%TO.C,D141*%
X361673550Y-132750000D03*
X361673550Y-131250000D03*
X356223550Y-131250000D03*
X356223550Y-132750000D03*
%TD*%
%TO.C,D171*%
X440894050Y-195147500D03*
X440894050Y-193647500D03*
X435444050Y-193647500D03*
X435444050Y-195147500D03*
%TD*%
D29*
%TO.C,D10*%
X333261550Y-82792500D03*
D27*
X333261550Y-75172500D03*
%TD*%
D29*
%TO.C,D27*%
X376124050Y-106605000D03*
D27*
X376124050Y-98985000D03*
%TD*%
D29*
%TO.C,D3*%
X190386550Y-82792500D03*
D27*
X190386550Y-75172500D03*
%TD*%
D28*
%TO.C,D142*%
X380754050Y-132715000D03*
X380754050Y-131215000D03*
X375304050Y-131215000D03*
X375304050Y-132715000D03*
%TD*%
%TO.C,D164*%
X421844050Y-176097500D03*
X421844050Y-174597500D03*
X416394050Y-174597500D03*
X416394050Y-176097500D03*
%TD*%
D29*
%TO.C,D50*%
X218961550Y-144705000D03*
D27*
X218961550Y-137085000D03*
%TD*%
D28*
%TO.C,D139*%
X342623550Y-132750000D03*
X342623550Y-131250000D03*
X337173550Y-131250000D03*
X337173550Y-132750000D03*
%TD*%
D29*
%TO.C,D17*%
X185624050Y-106605000D03*
D27*
X185624050Y-98985000D03*
%TD*%
D28*
%TO.C,D94*%
X285504050Y-89852500D03*
X285504050Y-88352500D03*
X280054050Y-88352500D03*
X280054050Y-89852500D03*
%TD*%
%TO.C,D102*%
X161679050Y-113665000D03*
X161679050Y-112165000D03*
X156229050Y-112165000D03*
X156229050Y-113665000D03*
%TD*%
D29*
%TO.C,D45*%
X448514050Y-134862500D03*
D27*
X448514050Y-127242500D03*
%TD*%
D29*
%TO.C,D46*%
X467564050Y-134862500D03*
D27*
X467564050Y-127242500D03*
%TD*%
D29*
%TO.C,D53*%
X276111550Y-144705000D03*
D27*
X276111550Y-137085000D03*
%TD*%
D28*
%TO.C,D168*%
X356957600Y-170820850D03*
X356957600Y-169320850D03*
X351507600Y-169320850D03*
X351507600Y-170820850D03*
%TD*%
D29*
%TO.C,D37*%
X271349050Y-125655000D03*
D27*
X271349050Y-118035000D03*
%TD*%
D29*
%TO.C,D72*%
X361836550Y-163755000D03*
D27*
X361836550Y-156135000D03*
%TD*%
D29*
%TO.C,D44*%
X410414050Y-127687500D03*
D27*
X410414050Y-120067500D03*
%TD*%
D28*
%TO.C,D157*%
X204537700Y-170817850D03*
X204537700Y-169317850D03*
X199087700Y-169317850D03*
X199087700Y-170817850D03*
%TD*%
D29*
%TO.C,D1*%
X147524050Y-82792500D03*
D27*
X147524050Y-75172500D03*
%TD*%
D28*
%TO.C,D143*%
X347416550Y-151760000D03*
X347416550Y-150260000D03*
X341966550Y-150260000D03*
X341966550Y-151760000D03*
%TD*%
%TO.C,D105*%
X218829050Y-113665000D03*
X218829050Y-112165000D03*
X213379050Y-112165000D03*
X213379050Y-113665000D03*
%TD*%
D29*
%TO.C,D47*%
X154667800Y-144705000D03*
D27*
X154667800Y-137085000D03*
%TD*%
D28*
%TO.C,D117*%
X453144050Y-122872500D03*
X453144050Y-121372500D03*
X447694050Y-121372500D03*
X447694050Y-122872500D03*
%TD*%
D29*
%TO.C,D16*%
X166574050Y-106605000D03*
D27*
X166574050Y-98985000D03*
%TD*%
M02*
