%TF.GenerationSoftware,KiCad,Pcbnew,10.0.3*%
%TF.CreationDate,2026-07-04T10:54:14-07:00*%
%TF.ProjectId,Gadgetpad,47616467-6574-4706-9164-2e6b69636164,rev?*%
%TF.SameCoordinates,Original*%
%TF.FileFunction,Paste,Bot*%
%TF.FilePolarity,Positive*%
%FSLAX46Y46*%
G04 Gerber Fmt 4.6, Leading zero omitted, Abs format (unit mm)*
G04 Created by KiCad (PCBNEW 10.0.3) date 2026-07-04 10:54:14*
%MOMM*%
%LPD*%
G01*
G04 APERTURE LIST*
G04 Aperture macros list*
%AMRoundRect*
0 Rectangle with rounded corners*
0 $1 Rounding radius*
0 $2 $3 $4 $5 $6 $7 $8 $9 X,Y pos of 4 corners*
0 Add a 4 corners polygon primitive as box body*
4,1,4,$2,$3,$4,$5,$6,$7,$8,$9,$2,$3,0*
0 Add four circle primitives for the rounded corners*
1,1,$1+$1,$2,$3*
1,1,$1+$1,$4,$5*
1,1,$1+$1,$6,$7*
1,1,$1+$1,$8,$9*
0 Add four rect primitives between the rounded corners*
20,1,$1+$1,$2,$3,$4,$5,0*
20,1,$1+$1,$4,$5,$6,$7,0*
20,1,$1+$1,$6,$7,$8,$9,0*
20,1,$1+$1,$8,$9,$2,$3,0*%
G04 Aperture macros list end*
%ADD10RoundRect,0.205000X0.470000X0.205000X-0.470000X0.205000X-0.470000X-0.205000X0.470000X-0.205000X0*%
G04 APERTURE END LIST*
D10*
%TO.C,D147*%
X397411350Y-151763250D03*
X397411350Y-150263250D03*
X391961350Y-150263250D03*
X391961350Y-151763250D03*
%TD*%
%TO.C,D124*%
X252175000Y-151784050D03*
X252175000Y-150284050D03*
X246725000Y-150284050D03*
X246725000Y-151784050D03*
%TD*%
%TO.C,D110*%
X314079050Y-113665000D03*
X314079050Y-112165000D03*
X308629050Y-112165000D03*
X308629050Y-113665000D03*
%TD*%
%TO.C,D156*%
X239305650Y-189872900D03*
X239305650Y-188372900D03*
X233855650Y-188372900D03*
X233855650Y-189872900D03*
%TD*%
%TO.C,D146*%
X402783450Y-195145100D03*
X402783450Y-193645100D03*
X397333450Y-193645100D03*
X397333450Y-195145100D03*
%TD*%
%TO.C,D122*%
X271224150Y-151775950D03*
X271224150Y-150275950D03*
X265774150Y-150275950D03*
X265774150Y-151775950D03*
%TD*%
%TO.C,D134*%
X149772800Y-151765000D03*
X149772800Y-150265000D03*
X144322800Y-150265000D03*
X144322800Y-151765000D03*
%TD*%
%TO.C,D119*%
X147361050Y-132715000D03*
X147361050Y-131215000D03*
X141911050Y-131215000D03*
X141911050Y-132715000D03*
%TD*%
%TO.C,D144*%
X421833450Y-195138750D03*
X421833450Y-193638750D03*
X416383450Y-193638750D03*
X416383450Y-195138750D03*
%TD*%
%TO.C,D129*%
X247373550Y-132715000D03*
X247373550Y-131215000D03*
X241923550Y-131215000D03*
X241923550Y-132715000D03*
%TD*%
%TO.C,D88*%
X166441550Y-89852500D03*
X166441550Y-88352500D03*
X160991550Y-88352500D03*
X160991550Y-89852500D03*
%TD*%
%TO.C,D96*%
X328366550Y-89852500D03*
X328366550Y-88352500D03*
X322916550Y-88352500D03*
X322916550Y-89852500D03*
%TD*%
%TO.C,D135*%
X304535000Y-132715000D03*
X304535000Y-131215000D03*
X299085000Y-131215000D03*
X299085000Y-132715000D03*
%TD*%
%TO.C,D101*%
X142629050Y-113665000D03*
X142629050Y-112165000D03*
X137179050Y-112165000D03*
X137179050Y-113665000D03*
%TD*%
%TO.C,D115*%
X434094050Y-122872500D03*
X434094050Y-121372500D03*
X428644050Y-121372500D03*
X428644050Y-122872500D03*
%TD*%
%TO.C,D137*%
X323573550Y-132750000D03*
X323573550Y-131250000D03*
X318123550Y-131250000D03*
X318123550Y-132750000D03*
%TD*%
%TO.C,D95*%
X304554050Y-89852500D03*
X304554050Y-88352500D03*
X299104050Y-88352500D03*
X299104050Y-89852500D03*
%TD*%
%TO.C,D170*%
X337860200Y-170817550D03*
X337860200Y-169317550D03*
X332410200Y-169317550D03*
X332410200Y-170817550D03*
%TD*%
%TO.C,D162*%
X145035250Y-189879550D03*
X145035250Y-188379550D03*
X139585250Y-188379550D03*
X139585250Y-189879550D03*
%TD*%
%TO.C,D167*%
X299806750Y-170850950D03*
X299806750Y-169350950D03*
X294356750Y-169350950D03*
X294356750Y-170850950D03*
%TD*%
%TO.C,D103*%
X180729050Y-113665000D03*
X180729050Y-112165000D03*
X175279050Y-112165000D03*
X175279050Y-113665000D03*
%TD*%
%TO.C,D140*%
X404594050Y-132733000D03*
X404594050Y-131233000D03*
X399144050Y-131233000D03*
X399144050Y-132733000D03*
%TD*%
%TO.C,D160*%
X168791450Y-189867550D03*
X168791450Y-188367550D03*
X163341450Y-188367550D03*
X163341450Y-189867550D03*
%TD*%
%TO.C,D109*%
X295029050Y-113665000D03*
X295029050Y-112165000D03*
X289579050Y-112165000D03*
X289579050Y-113665000D03*
%TD*%
%TO.C,D126*%
X233124150Y-151765000D03*
X233124150Y-150265000D03*
X227674150Y-150265000D03*
X227674150Y-151765000D03*
%TD*%
%TO.C,D120*%
X290236050Y-151775950D03*
X290236050Y-150275950D03*
X284786050Y-150275950D03*
X284786050Y-151775950D03*
%TD*%
%TO.C,D169*%
X318838550Y-170820850D03*
X318838550Y-169320850D03*
X313388550Y-169320850D03*
X313388550Y-170820850D03*
%TD*%
%TO.C,D131*%
X266442600Y-132714600D03*
X266442600Y-131214600D03*
X260992600Y-131214600D03*
X260992600Y-132714600D03*
%TD*%
%TO.C,D159*%
X223588550Y-170829900D03*
X223588550Y-169329900D03*
X218138550Y-169329900D03*
X218138550Y-170829900D03*
%TD*%
%TO.C,D154*%
X288853850Y-189851800D03*
X288853850Y-188351800D03*
X283403850Y-188351800D03*
X283403850Y-189851800D03*
%TD*%
%TO.C,D87*%
X142629050Y-89852500D03*
X142629050Y-88352500D03*
X137179050Y-88352500D03*
X137179050Y-89852500D03*
%TD*%
%TO.C,D155*%
X185491550Y-170820000D03*
X185491550Y-169320000D03*
X180041550Y-169320000D03*
X180041550Y-170820000D03*
%TD*%
%TO.C,D89*%
X185491550Y-89852500D03*
X185491550Y-88352500D03*
X180041550Y-88352500D03*
X180041550Y-89852500D03*
%TD*%
%TO.C,D127*%
X228381550Y-132738000D03*
X228381550Y-131238000D03*
X222931550Y-131238000D03*
X222931550Y-132738000D03*
%TD*%
%TO.C,D130*%
X195005100Y-151761900D03*
X195005100Y-150261900D03*
X189555100Y-150261900D03*
X189555100Y-151761900D03*
%TD*%
%TO.C,D118*%
X309325000Y-151763950D03*
X309325000Y-150263950D03*
X303875000Y-150263950D03*
X303875000Y-151763950D03*
%TD*%
%TO.C,D163*%
X261687700Y-170822850D03*
X261687700Y-169322850D03*
X256237700Y-169322850D03*
X256237700Y-170822850D03*
%TD*%
%TO.C,D108*%
X275979050Y-113665000D03*
X275979050Y-112165000D03*
X270529050Y-112165000D03*
X270529050Y-113665000D03*
%TD*%
%TO.C,D106*%
X237879050Y-113665000D03*
X237879050Y-112165000D03*
X232429050Y-112165000D03*
X232429050Y-113665000D03*
%TD*%
%TO.C,D90*%
X204541550Y-89852500D03*
X204541550Y-88352500D03*
X199091550Y-88352500D03*
X199091550Y-89852500D03*
%TD*%
%TO.C,D91*%
X223591550Y-89852500D03*
X223591550Y-88352500D03*
X218141550Y-88352500D03*
X218141550Y-89852500D03*
%TD*%
%TO.C,D136*%
X462638550Y-141894000D03*
X462638550Y-140394000D03*
X457188550Y-140394000D03*
X457188550Y-141894000D03*
%TD*%
%TO.C,D93*%
X266454050Y-89852500D03*
X266454050Y-88352500D03*
X261004050Y-88352500D03*
X261004050Y-89852500D03*
%TD*%
%TO.C,D104*%
X199779050Y-113665000D03*
X199779050Y-112165000D03*
X194329050Y-112165000D03*
X194329050Y-113665000D03*
%TD*%
%TO.C,D116*%
X328355100Y-151760000D03*
X328355100Y-150260000D03*
X322905100Y-150260000D03*
X322905100Y-151760000D03*
%TD*%
%TO.C,D145*%
X366455100Y-151756900D03*
X366455100Y-150256900D03*
X361005100Y-150256900D03*
X361005100Y-151756900D03*
%TD*%
%TO.C,D148*%
X371217600Y-189875950D03*
X371217600Y-188375950D03*
X365767600Y-188375950D03*
X365767600Y-189875950D03*
%TD*%
%TO.C,D92*%
X247404050Y-89852500D03*
X247404050Y-88352500D03*
X241954050Y-88352500D03*
X241954050Y-89852500D03*
%TD*%
%TO.C,D138*%
X443588550Y-141894000D03*
X443588550Y-140394000D03*
X438138550Y-140394000D03*
X438138550Y-141894000D03*
%TD*%
%TO.C,D113*%
X371229050Y-113665000D03*
X371229050Y-112165000D03*
X365779050Y-112165000D03*
X365779050Y-113665000D03*
%TD*%
%TO.C,D165*%
X280757600Y-170815850D03*
X280757600Y-169315850D03*
X275307600Y-169315850D03*
X275307600Y-170815850D03*
%TD*%
%TO.C,D114*%
X399804050Y-113665000D03*
X399804050Y-112165000D03*
X394354050Y-112165000D03*
X394354050Y-113665000D03*
%TD*%
%TO.C,D98*%
X366466550Y-89852500D03*
X366466550Y-88352500D03*
X361016550Y-88352500D03*
X361016550Y-89852500D03*
%TD*%
%TO.C,D123*%
X190281550Y-132733000D03*
X190281550Y-131233000D03*
X184831550Y-131233000D03*
X184831550Y-132733000D03*
%TD*%
%TO.C,D133*%
X285504050Y-132720000D03*
X285504050Y-131220000D03*
X280054050Y-131220000D03*
X280054050Y-132720000D03*
%TD*%
%TO.C,D125*%
X209331550Y-132745000D03*
X209331550Y-131245000D03*
X203881550Y-131245000D03*
X203881550Y-132745000D03*
%TD*%
%TO.C,D128*%
X214074150Y-151765000D03*
X214074150Y-150265000D03*
X208624150Y-150265000D03*
X208624150Y-151765000D03*
%TD*%
%TO.C,D112*%
X352179050Y-113665000D03*
X352179050Y-112165000D03*
X346729050Y-112165000D03*
X346729050Y-113665000D03*
%TD*%
%TO.C,D152*%
X333137500Y-189878950D03*
X333137500Y-188378950D03*
X327687500Y-188378950D03*
X327687500Y-189878950D03*
%TD*%
%TO.C,D158*%
X192643750Y-189873950D03*
X192643750Y-188373950D03*
X187193750Y-188373950D03*
X187193750Y-189873950D03*
%TD*%
%TO.C,D121*%
X171173550Y-132715000D03*
X171173550Y-131215000D03*
X165723550Y-131215000D03*
X165723550Y-132715000D03*
%TD*%
%TO.C,D149*%
X453151650Y-160983450D03*
X453151650Y-159483450D03*
X447701650Y-159483450D03*
X447701650Y-160983450D03*
%TD*%
%TO.C,D111*%
X333129050Y-113665000D03*
X333129050Y-112165000D03*
X327679050Y-112165000D03*
X327679050Y-113665000D03*
%TD*%
%TO.C,D153*%
X154542900Y-170816900D03*
X154542900Y-169316900D03*
X149092900Y-169316900D03*
X149092900Y-170816900D03*
%TD*%
%TO.C,D150*%
X352187500Y-189868950D03*
X352187500Y-188368950D03*
X346737500Y-188368950D03*
X346737500Y-189868950D03*
%TD*%
%TO.C,D100*%
X409329050Y-89852500D03*
X409329050Y-88352500D03*
X403879050Y-88352500D03*
X403879050Y-89852500D03*
%TD*%
%TO.C,D166*%
X383142050Y-170817550D03*
X383142050Y-169317550D03*
X377692050Y-169317550D03*
X377692050Y-170817550D03*
%TD*%
%TO.C,D151*%
X472182600Y-160977100D03*
X472182600Y-159477100D03*
X466732600Y-159477100D03*
X466732600Y-160977100D03*
%TD*%
%TO.C,D99*%
X385516550Y-89852500D03*
X385516550Y-88352500D03*
X380066550Y-88352500D03*
X380066550Y-89852500D03*
%TD*%
%TO.C,D161*%
X242637700Y-170830950D03*
X242637700Y-169330950D03*
X237187700Y-169330950D03*
X237187700Y-170830950D03*
%TD*%
%TO.C,D132*%
X175994050Y-151802050D03*
X175994050Y-150302050D03*
X170544050Y-150302050D03*
X170544050Y-151802050D03*
%TD*%
%TO.C,D97*%
X347416550Y-89852500D03*
X347416550Y-88352500D03*
X341966550Y-88352500D03*
X341966550Y-89852500D03*
%TD*%
%TO.C,D107*%
X256929050Y-113665000D03*
X256929050Y-112165000D03*
X251479050Y-112165000D03*
X251479050Y-113665000D03*
%TD*%
%TO.C,D141*%
X361673550Y-132750000D03*
X361673550Y-131250000D03*
X356223550Y-131250000D03*
X356223550Y-132750000D03*
%TD*%
%TO.C,D171*%
X440894050Y-195147500D03*
X440894050Y-193647500D03*
X435444050Y-193647500D03*
X435444050Y-195147500D03*
%TD*%
%TO.C,D142*%
X380754050Y-132715000D03*
X380754050Y-131215000D03*
X375304050Y-131215000D03*
X375304050Y-132715000D03*
%TD*%
%TO.C,D164*%
X421844050Y-176097500D03*
X421844050Y-174597500D03*
X416394050Y-174597500D03*
X416394050Y-176097500D03*
%TD*%
%TO.C,D139*%
X342623550Y-132750000D03*
X342623550Y-131250000D03*
X337173550Y-131250000D03*
X337173550Y-132750000D03*
%TD*%
%TO.C,D94*%
X285504050Y-89852500D03*
X285504050Y-88352500D03*
X280054050Y-88352500D03*
X280054050Y-89852500D03*
%TD*%
%TO.C,D102*%
X161679050Y-113665000D03*
X161679050Y-112165000D03*
X156229050Y-112165000D03*
X156229050Y-113665000D03*
%TD*%
%TO.C,D168*%
X356957600Y-170820850D03*
X356957600Y-169320850D03*
X351507600Y-169320850D03*
X351507600Y-170820850D03*
%TD*%
%TO.C,D157*%
X204537700Y-170817850D03*
X204537700Y-169317850D03*
X199087700Y-169317850D03*
X199087700Y-170817850D03*
%TD*%
%TO.C,D143*%
X347416550Y-151760000D03*
X347416550Y-150260000D03*
X341966550Y-150260000D03*
X341966550Y-151760000D03*
%TD*%
%TO.C,D105*%
X218829050Y-113665000D03*
X218829050Y-112165000D03*
X213379050Y-112165000D03*
X213379050Y-113665000D03*
%TD*%
%TO.C,D117*%
X453144050Y-122872500D03*
X453144050Y-121372500D03*
X447694050Y-121372500D03*
X447694050Y-122872500D03*
%TD*%
M02*
