%TF.GenerationSoftware,KiCad,Pcbnew,10.0.3*%
%TF.CreationDate,2026-07-04T10:54:14-07:00*%
%TF.ProjectId,Gadgetpad,47616467-6574-4706-9164-2e6b69636164,rev?*%
%TF.SameCoordinates,Original*%
%TF.FileFunction,Soldermask,Top*%
%TF.FilePolarity,Negative*%
%FSLAX46Y46*%
G04 Gerber Fmt 4.6, Leading zero omitted, Abs format (unit mm)*
G04 Created by KiCad (PCBNEW 10.0.3) date 2026-07-04 10:54:14*
%MOMM*%
%LPD*%
G01*
G04 APERTURE LIST*
G04 Aperture macros list*
%AMRoundRect*
0 Rectangle with rounded corners*
0 $1 Rounding radius*
0 $2 $3 $4 $5 $6 $7 $8 $9 X,Y pos of 4 corners*
0 Add a 4 corners polygon primitive as box body*
4,1,4,$2,$3,$4,$5,$6,$7,$8,$9,$2,$3,0*
0 Add four circle primitives for the rounded corners*
1,1,$1+$1,$2,$3*
1,1,$1+$1,$4,$5*
1,1,$1+$1,$6,$7*
1,1,$1+$1,$8,$9*
0 Add four rect primitives between the rounded corners*
20,1,$1+$1,$2,$3,$4,$5,0*
20,1,$1+$1,$4,$5,$6,$7,0*
20,1,$1+$1,$6,$7,$8,$9,0*
20,1,$1+$1,$8,$9,$2,$3,0*%
%AMFreePoly0*
4,1,15,-0.616000,0.142500,-0.283500,0.475000,0.521000,0.475000,0.557355,0.467769,0.588175,0.447175,0.608769,0.416355,0.616000,0.380000,0.616000,-0.380000,0.608769,-0.416355,0.588175,-0.447175,0.557355,-0.467769,0.521000,-0.475000,-0.283500,-0.475000,-0.616000,-0.142500,-0.616000,0.142500,-0.616000,0.142500,$1*%
G04 Aperture macros list end*
%ADD10C,1.700000*%
%ADD11C,4.000000*%
%ADD12C,2.200000*%
%ADD13C,3.050000*%
%ADD14C,3.200000*%
%ADD15O,2.200000X3.500000*%
%ADD16R,1.500000X2.500000*%
%ADD17O,1.500000X2.500000*%
%ADD18R,1.700000X1.700000*%
%ADD19O,1.700000X1.700000*%
%ADD20R,1.800000X1.800000*%
%ADD21C,1.800000*%
%ADD22C,2.550000*%
%ADD23RoundRect,0.095000X0.921000X0.380000X-0.921000X0.380000X-0.921000X-0.380000X0.921000X-0.380000X0*%
%ADD24RoundRect,0.095000X-0.921000X-0.380000X0.921000X-0.380000X0.921000X0.380000X-0.921000X0.380000X0*%
%ADD25FreePoly0,180.000000*%
%ADD26FreePoly0,0.000000*%
%ADD27RoundRect,0.110000X-0.440000X1.140000X-0.440000X-1.140000X0.440000X-1.140000X0.440000X1.140000X0*%
%ADD28RoundRect,0.250000X-0.550000X-0.550000X0.550000X-0.550000X0.550000X0.550000X-0.550000X0.550000X0*%
%ADD29C,1.600000*%
%ADD30RoundRect,0.250000X0.550000X-0.550000X0.550000X0.550000X-0.550000X0.550000X-0.550000X-0.550000X0*%
%ADD31RoundRect,0.250000X0.550000X0.550000X-0.550000X0.550000X-0.550000X-0.550000X0.550000X-0.550000X0*%
G04 APERTURE END LIST*
D10*
%TO.C,SW73*%
X375330300Y-164835000D03*
D11*
X380410300Y-164835000D03*
D10*
X385490300Y-164835000D03*
D12*
X382950300Y-159755000D03*
X376600300Y-162295000D03*
%TD*%
D10*
%TO.C,SW53*%
X263411550Y-145785000D03*
D11*
X268491550Y-145785000D03*
D10*
X273571550Y-145785000D03*
D12*
X271031550Y-140705000D03*
X264681550Y-143245000D03*
%TD*%
D10*
%TO.C,SW71*%
X330086550Y-164835000D03*
D11*
X335166550Y-164835000D03*
D10*
X340246550Y-164835000D03*
D12*
X337706550Y-159755000D03*
X331356550Y-162295000D03*
%TD*%
D10*
%TO.C,SW44*%
X396761550Y-126735000D03*
D11*
X401841550Y-126735000D03*
D10*
X406921550Y-126735000D03*
D12*
X404381550Y-121655000D03*
X398031550Y-124195000D03*
%TD*%
D10*
%TO.C,SW58*%
X358661550Y-145785000D03*
D11*
X363741550Y-145785000D03*
D10*
X368821550Y-145785000D03*
D12*
X366281550Y-140705000D03*
X359931550Y-143245000D03*
%TD*%
D13*
%TO.C,SW78*%
X211347800Y-176885000D03*
D11*
X211347800Y-192125000D03*
D10*
X256267800Y-183885000D03*
D11*
X261347800Y-183885000D03*
D10*
X266427800Y-183885000D03*
D13*
X311347800Y-176885000D03*
D11*
X311347800Y-192125000D03*
D12*
X263887800Y-178805000D03*
X257537800Y-181345000D03*
%TD*%
D10*
%TO.C,SW52*%
X244361550Y-145785000D03*
D11*
X249441550Y-145785000D03*
D10*
X254521550Y-145785000D03*
D12*
X251981550Y-140705000D03*
X245631550Y-143245000D03*
%TD*%
D14*
%TO.C,H1*%
X125379050Y-69347500D03*
%TD*%
D10*
%TO.C,SW11*%
X339611550Y-83872500D03*
D11*
X344691550Y-83872500D03*
D10*
X349771550Y-83872500D03*
D12*
X347231550Y-78792500D03*
X340881550Y-81332500D03*
%TD*%
D10*
%TO.C,SW6*%
X239599050Y-83872500D03*
D11*
X244679050Y-83872500D03*
D10*
X249759050Y-83872500D03*
D12*
X247219050Y-78792500D03*
X240869050Y-81332500D03*
%TD*%
D10*
%TO.C,SW75*%
X137205300Y-183885000D03*
D11*
X142285300Y-183885000D03*
D10*
X147365300Y-183885000D03*
D12*
X144825300Y-178805000D03*
X138475300Y-181345000D03*
%TD*%
D10*
%TO.C,SW70*%
X311036550Y-164835000D03*
D11*
X316116550Y-164835000D03*
D10*
X321196550Y-164835000D03*
D12*
X318656550Y-159755000D03*
X312306550Y-162295000D03*
%TD*%
D10*
%TO.C,SW30*%
X445339050Y-116892500D03*
D11*
X450419050Y-116892500D03*
D10*
X455499050Y-116892500D03*
D12*
X452959050Y-111812500D03*
X446609050Y-114352500D03*
%TD*%
D10*
%TO.C,SW27*%
X363424050Y-107685000D03*
D11*
X368504050Y-107685000D03*
D10*
X373584050Y-107685000D03*
D12*
X371044050Y-102605000D03*
X364694050Y-105145000D03*
%TD*%
D10*
%TO.C,SW61*%
X464389050Y-154992500D03*
D11*
X469469050Y-154992500D03*
D10*
X474549050Y-154992500D03*
D12*
X472009050Y-149912500D03*
X465659050Y-152452500D03*
%TD*%
D10*
%TO.C,SW34*%
X201499050Y-126735000D03*
D11*
X206579050Y-126735000D03*
D10*
X211659050Y-126735000D03*
D12*
X209119050Y-121655000D03*
X202769050Y-124195000D03*
%TD*%
D10*
%TO.C,SW55*%
X301511550Y-145785000D03*
D11*
X306591550Y-145785000D03*
D10*
X311671550Y-145785000D03*
D12*
X309131550Y-140705000D03*
X302781550Y-143245000D03*
%TD*%
D10*
%TO.C,SW77*%
X184830300Y-183885000D03*
D11*
X189910300Y-183885000D03*
D10*
X194990300Y-183885000D03*
D12*
X192450300Y-178805000D03*
X186100300Y-181345000D03*
%TD*%
D13*
%TO.C,SW62*%
X139910300Y-157835000D03*
D11*
X139910300Y-173075000D03*
D10*
X146730300Y-164835000D03*
D11*
X151810300Y-164835000D03*
D10*
X156890300Y-164835000D03*
D13*
X163710300Y-157835000D03*
D11*
X163710300Y-173075000D03*
D12*
X154350300Y-159755000D03*
X148000300Y-162295000D03*
%TD*%
D10*
%TO.C,SW35*%
X220549050Y-126735000D03*
D11*
X225629050Y-126735000D03*
D10*
X230709050Y-126735000D03*
D12*
X228169050Y-121655000D03*
X221819050Y-124195000D03*
%TD*%
D15*
%TO.C,SW86*%
X509733550Y-83691500D03*
X501533550Y-83691500D03*
D16*
X507633550Y-83691500D03*
D17*
X505633550Y-83691500D03*
X503633550Y-83691500D03*
%TD*%
D18*
%TO.C,J2*%
X483439050Y-104827500D03*
D10*
X480899050Y-104827500D03*
%TD*%
D14*
%TO.C,H4*%
X525379050Y-209347500D03*
%TD*%
D10*
%TO.C,SW51*%
X225311550Y-145785000D03*
D11*
X230391550Y-145785000D03*
D10*
X235471550Y-145785000D03*
D12*
X232931550Y-140705000D03*
X226581550Y-143245000D03*
%TD*%
D10*
%TO.C,SW36*%
X239599050Y-126735000D03*
D11*
X244679050Y-126735000D03*
D10*
X249759050Y-126735000D03*
D12*
X247219050Y-121655000D03*
X240869050Y-124195000D03*
%TD*%
D18*
%TO.C,J1*%
X456179050Y-88127500D03*
D19*
X456179050Y-85587500D03*
X456179050Y-83047500D03*
X456179050Y-80507500D03*
%TD*%
D10*
%TO.C,SW38*%
X277699050Y-126735000D03*
D11*
X282779050Y-126735000D03*
D10*
X287859050Y-126735000D03*
D12*
X285319050Y-121655000D03*
X278969050Y-124195000D03*
%TD*%
D10*
%TO.C,SW7*%
X258649050Y-83872500D03*
D11*
X263729050Y-83872500D03*
D10*
X268809050Y-83872500D03*
D12*
X266269050Y-78792500D03*
X259919050Y-81332500D03*
%TD*%
D20*
%TO.C,VR1*%
X503914050Y-185392500D03*
D21*
X504714050Y-180142500D03*
X503914050Y-111892500D03*
X507414050Y-185392500D03*
X506614050Y-117142500D03*
X507414050Y-111892500D03*
D22*
X501414050Y-180042500D03*
X501414050Y-117242500D03*
X509914050Y-181242500D03*
X509914050Y-116042500D03*
%TD*%
D10*
%TO.C,SW47*%
X141967800Y-145785000D03*
D11*
X147047800Y-145785000D03*
D10*
X152127800Y-145785000D03*
D12*
X149587800Y-140705000D03*
X143237800Y-143245000D03*
%TD*%
D10*
%TO.C,SW19*%
X211024050Y-107685000D03*
D11*
X216104050Y-107685000D03*
D10*
X221184050Y-107685000D03*
D12*
X218644050Y-102605000D03*
X212294050Y-105145000D03*
%TD*%
D10*
%TO.C,SW4*%
X196736550Y-83872500D03*
D11*
X201816550Y-83872500D03*
D10*
X206896550Y-83872500D03*
D12*
X204356550Y-78792500D03*
X198006550Y-81332500D03*
%TD*%
D10*
%TO.C,SW63*%
X177686550Y-164835000D03*
D11*
X182766550Y-164835000D03*
D10*
X187846550Y-164835000D03*
D12*
X185306550Y-159755000D03*
X178956550Y-162295000D03*
%TD*%
D10*
%TO.C,SW42*%
X353899050Y-126735000D03*
D11*
X358979050Y-126735000D03*
D10*
X364059050Y-126735000D03*
D12*
X361519050Y-121655000D03*
X355169050Y-124195000D03*
%TD*%
D10*
%TO.C,SW26*%
X344374050Y-107685000D03*
D11*
X349454050Y-107685000D03*
D10*
X354534050Y-107685000D03*
D12*
X351994050Y-102605000D03*
X345644050Y-105145000D03*
%TD*%
D10*
%TO.C,SW48*%
X168161550Y-145785000D03*
D11*
X173241550Y-145785000D03*
D10*
X178321550Y-145785000D03*
D12*
X175781550Y-140705000D03*
X169431550Y-143245000D03*
%TD*%
D14*
%TO.C,H2*%
X325379050Y-69447500D03*
%TD*%
D10*
%TO.C,SW22*%
X268174050Y-107685000D03*
D11*
X273254050Y-107685000D03*
D10*
X278334050Y-107685000D03*
D12*
X275794050Y-102605000D03*
X269444050Y-105145000D03*
%TD*%
D10*
%TO.C,SW17*%
X172924050Y-107685000D03*
D11*
X178004050Y-107685000D03*
D10*
X183084050Y-107685000D03*
D12*
X180544050Y-102605000D03*
X174194050Y-105145000D03*
%TD*%
D10*
%TO.C,SW43*%
X372949050Y-126735000D03*
D11*
X378029050Y-126735000D03*
D10*
X383109050Y-126735000D03*
D12*
X380569050Y-121655000D03*
X374219050Y-124195000D03*
%TD*%
D10*
%TO.C,SW24*%
X306274050Y-107685000D03*
D11*
X311354050Y-107685000D03*
D10*
X316434050Y-107685000D03*
D12*
X313894050Y-102605000D03*
X307544050Y-105145000D03*
%TD*%
D10*
%TO.C,SW84*%
X433089050Y-189167500D03*
D11*
X438169050Y-189167500D03*
D10*
X443249050Y-189167500D03*
D12*
X440709050Y-184087500D03*
X434359050Y-186627500D03*
%TD*%
D23*
%TO.C,U1*%
X426608050Y-75268500D03*
X426608050Y-77808500D03*
X426608050Y-80348500D03*
X426608050Y-82888500D03*
X426608050Y-85428500D03*
X426608050Y-87968500D03*
X426608050Y-90508500D03*
D24*
X443118050Y-90508500D03*
X443118050Y-87968500D03*
X443118050Y-85428500D03*
X443118050Y-82888500D03*
X443118050Y-80348500D03*
X443118050Y-77808500D03*
X443118050Y-75268500D03*
D25*
X426208050Y-76538500D03*
X426208050Y-79078500D03*
X426208050Y-81618500D03*
X426208050Y-84158500D03*
X426208050Y-86698500D03*
X426208050Y-89238500D03*
D26*
X443518050Y-89238500D03*
X443518050Y-86698500D03*
X443518050Y-84158500D03*
D10*
X433593050Y-74316000D03*
X436133050Y-74316000D03*
X433593050Y-76856000D03*
X436133050Y-76856000D03*
D27*
X435869062Y-88406323D03*
X433869062Y-88406323D03*
%TD*%
D10*
%TO.C,SW74*%
X414039050Y-170117500D03*
D11*
X419119050Y-170117500D03*
D10*
X424199050Y-170117500D03*
D12*
X421659050Y-165037500D03*
X415309050Y-167577500D03*
%TD*%
D10*
%TO.C,SW32*%
X163399050Y-126735000D03*
D11*
X168479050Y-126735000D03*
D10*
X173559050Y-126735000D03*
D12*
X171019050Y-121655000D03*
X164669050Y-124195000D03*
%TD*%
D13*
%TO.C,SW28*%
X385179050Y-100685000D03*
D11*
X385179050Y-115925000D03*
D10*
X391999050Y-107685000D03*
D11*
X397079050Y-107685000D03*
D10*
X402159050Y-107685000D03*
D13*
X408979050Y-100685000D03*
D11*
X408979050Y-115925000D03*
D12*
X399619050Y-102605000D03*
X393269050Y-105145000D03*
%TD*%
D10*
%TO.C,SW81*%
X363424050Y-183885000D03*
D11*
X368504050Y-183885000D03*
D10*
X373584050Y-183885000D03*
D12*
X371044050Y-178805000D03*
X364694050Y-181345000D03*
%TD*%
D10*
%TO.C,SW72*%
X349136550Y-164835000D03*
D11*
X354216550Y-164835000D03*
D10*
X359296550Y-164835000D03*
D12*
X356756550Y-159755000D03*
X350406550Y-162295000D03*
%TD*%
D10*
%TO.C,SW21*%
X249124050Y-107685000D03*
D11*
X254204050Y-107685000D03*
D10*
X259284050Y-107685000D03*
D12*
X256744050Y-102605000D03*
X250394050Y-105145000D03*
%TD*%
D10*
%TO.C,SW67*%
X253886550Y-164835000D03*
D11*
X258966550Y-164835000D03*
D10*
X264046550Y-164835000D03*
D12*
X261506550Y-159755000D03*
X255156550Y-162295000D03*
%TD*%
D10*
%TO.C,SW12*%
X358661550Y-83872500D03*
D11*
X363741550Y-83872500D03*
D10*
X368821550Y-83872500D03*
D12*
X366281550Y-78792500D03*
X359931550Y-81332500D03*
%TD*%
D10*
%TO.C,SW69*%
X291986550Y-164835000D03*
D11*
X297066550Y-164835000D03*
D10*
X302146550Y-164835000D03*
D12*
X299606550Y-159755000D03*
X293256550Y-162295000D03*
%TD*%
D10*
%TO.C,SW29*%
X426289050Y-116892500D03*
D11*
X431369050Y-116892500D03*
D10*
X436449050Y-116892500D03*
D12*
X433909050Y-111812500D03*
X427559050Y-114352500D03*
%TD*%
D10*
%TO.C,SW68*%
X272936550Y-164835000D03*
D11*
X278016550Y-164835000D03*
D10*
X283096550Y-164835000D03*
D12*
X280556550Y-159755000D03*
X274206550Y-162295000D03*
%TD*%
D10*
%TO.C,SW5*%
X215786550Y-83872500D03*
D11*
X220866550Y-83872500D03*
D10*
X225946550Y-83872500D03*
D12*
X223406550Y-78792500D03*
X217056550Y-81332500D03*
%TD*%
D10*
%TO.C,SW31*%
X139586550Y-126735000D03*
D11*
X144666550Y-126735000D03*
D10*
X149746550Y-126735000D03*
D12*
X147206550Y-121655000D03*
X140856550Y-124195000D03*
%TD*%
D10*
%TO.C,SW46*%
X454864050Y-135942500D03*
D11*
X459944050Y-135942500D03*
D10*
X465024050Y-135942500D03*
D12*
X462484050Y-130862500D03*
X456134050Y-133402500D03*
%TD*%
D10*
%TO.C,SW16*%
X153874050Y-107685000D03*
D11*
X158954050Y-107685000D03*
D10*
X164034050Y-107685000D03*
D12*
X161494050Y-102605000D03*
X155144050Y-105145000D03*
%TD*%
D10*
%TO.C,SW2*%
X158636550Y-83872500D03*
D11*
X163716550Y-83872500D03*
D10*
X168796550Y-83872500D03*
D12*
X166256550Y-78792500D03*
X159906550Y-81332500D03*
%TD*%
D13*
%TO.C,SW59*%
X382797800Y-138785000D03*
D11*
X382797800Y-154025000D03*
D10*
X389617800Y-145785000D03*
D11*
X394697800Y-145785000D03*
D10*
X399777800Y-145785000D03*
D13*
X406597800Y-138785000D03*
D11*
X406597800Y-154025000D03*
D12*
X397237800Y-140705000D03*
X390887800Y-143245000D03*
%TD*%
D10*
%TO.C,SW57*%
X339611550Y-145785000D03*
D11*
X344691550Y-145785000D03*
D10*
X349771550Y-145785000D03*
D12*
X347231550Y-140705000D03*
X340881550Y-143245000D03*
%TD*%
D10*
%TO.C,SW9*%
X296749050Y-83872500D03*
D11*
X301829050Y-83872500D03*
D10*
X306909050Y-83872500D03*
D12*
X304369050Y-78792500D03*
X298019050Y-81332500D03*
%TD*%
D10*
%TO.C,SW39*%
X296749050Y-126735000D03*
D11*
X301829050Y-126735000D03*
D10*
X306909050Y-126735000D03*
D12*
X304369050Y-121655000D03*
X298019050Y-124195000D03*
%TD*%
D10*
%TO.C,SW50*%
X206261550Y-145785000D03*
D11*
X211341550Y-145785000D03*
D10*
X216421550Y-145785000D03*
D12*
X213881550Y-140705000D03*
X207531550Y-143245000D03*
%TD*%
D10*
%TO.C,SW15*%
X134824050Y-107685000D03*
D11*
X139904050Y-107685000D03*
D10*
X144984050Y-107685000D03*
D12*
X142444050Y-102605000D03*
X136094050Y-105145000D03*
%TD*%
D10*
%TO.C,SW23*%
X287224050Y-107685000D03*
D11*
X292304050Y-107685000D03*
D10*
X297384050Y-107685000D03*
D12*
X294844050Y-102605000D03*
X288494050Y-105145000D03*
%TD*%
D10*
%TO.C,SW13*%
X377711550Y-83872500D03*
D11*
X382791550Y-83872500D03*
D10*
X387871550Y-83872500D03*
D12*
X385331550Y-78792500D03*
X378981550Y-81332500D03*
%TD*%
D10*
%TO.C,SW64*%
X196736550Y-164835000D03*
D11*
X201816550Y-164835000D03*
D10*
X206896550Y-164835000D03*
D12*
X204356550Y-159755000D03*
X198006550Y-162295000D03*
%TD*%
D14*
%TO.C,H3*%
X525379050Y-69447500D03*
%TD*%
%TO.C,H5*%
X325479050Y-209347500D03*
%TD*%
%TO.C,H6*%
X125379050Y-209347500D03*
%TD*%
D10*
%TO.C,SW14*%
X401524050Y-83872500D03*
D11*
X406604050Y-83872500D03*
D10*
X411684050Y-83872500D03*
D12*
X409144050Y-78792500D03*
X402794050Y-81332500D03*
%TD*%
D10*
%TO.C,SW80*%
X344374050Y-183885000D03*
D11*
X349454050Y-183885000D03*
D10*
X354534050Y-183885000D03*
D12*
X351994050Y-178805000D03*
X345644050Y-181345000D03*
%TD*%
D10*
%TO.C,SW65*%
X215786550Y-164835000D03*
D11*
X220866550Y-164835000D03*
D10*
X225946550Y-164835000D03*
D12*
X223406550Y-159755000D03*
X217056550Y-162295000D03*
%TD*%
D10*
%TO.C,SW40*%
X315799050Y-126735000D03*
D11*
X320879050Y-126735000D03*
D10*
X325959050Y-126735000D03*
D12*
X323419050Y-121655000D03*
X317069050Y-124195000D03*
%TD*%
D10*
%TO.C,SW8*%
X277699050Y-83872500D03*
D11*
X282779050Y-83872500D03*
D10*
X287859050Y-83872500D03*
D12*
X285319050Y-78792500D03*
X278969050Y-81332500D03*
%TD*%
D10*
%TO.C,SW66*%
X234836550Y-164835000D03*
D11*
X239916550Y-164835000D03*
D10*
X244996550Y-164835000D03*
D12*
X242456550Y-159755000D03*
X236106550Y-162295000D03*
%TD*%
D10*
%TO.C,SW56*%
X320561550Y-145785000D03*
D11*
X325641550Y-145785000D03*
D10*
X330721550Y-145785000D03*
D12*
X328181550Y-140705000D03*
X321831550Y-143245000D03*
%TD*%
D10*
%TO.C,SW76*%
X161017800Y-183885000D03*
D11*
X166097800Y-183885000D03*
D10*
X171177800Y-183885000D03*
D12*
X168637800Y-178805000D03*
X162287800Y-181345000D03*
%TD*%
D28*
%TO.C,D172*%
X451494050Y-75622500D03*
D29*
X459114050Y-75622500D03*
%TD*%
D10*
%TO.C,SW83*%
X414039050Y-189167500D03*
D11*
X419119050Y-189167500D03*
D10*
X424199050Y-189167500D03*
D12*
X421659050Y-184087500D03*
X415309050Y-186627500D03*
%TD*%
D10*
%TO.C,SW79*%
X325324050Y-183885000D03*
D11*
X330404050Y-183885000D03*
D10*
X335484050Y-183885000D03*
D12*
X332944050Y-178805000D03*
X326594050Y-181345000D03*
%TD*%
D10*
%TO.C,SW20*%
X230074050Y-107685000D03*
D11*
X235154050Y-107685000D03*
D10*
X240234050Y-107685000D03*
D12*
X237694050Y-102605000D03*
X231344050Y-105145000D03*
%TD*%
D10*
%TO.C,SW3*%
X177686550Y-83872500D03*
D11*
X182766550Y-83872500D03*
D10*
X187846550Y-83872500D03*
D12*
X185306550Y-78792500D03*
X178956550Y-81332500D03*
%TD*%
D10*
%TO.C,SW18*%
X191974050Y-107685000D03*
D11*
X197054050Y-107685000D03*
D10*
X202134050Y-107685000D03*
D12*
X199594050Y-102605000D03*
X193244050Y-105145000D03*
%TD*%
D10*
%TO.C,SW25*%
X325324050Y-107685000D03*
D11*
X330404050Y-107685000D03*
D10*
X335484050Y-107685000D03*
D12*
X332944050Y-102605000D03*
X326594050Y-105145000D03*
%TD*%
D10*
%TO.C,SW54*%
X282461550Y-145785000D03*
D11*
X287541550Y-145785000D03*
D10*
X292621550Y-145785000D03*
D12*
X290081550Y-140705000D03*
X283731550Y-143245000D03*
%TD*%
D10*
%TO.C,SW45*%
X435814050Y-135942500D03*
D11*
X440894050Y-135942500D03*
D10*
X445974050Y-135942500D03*
D12*
X443434050Y-130862500D03*
X437084050Y-133402500D03*
%TD*%
D10*
%TO.C,SW10*%
X320561550Y-83872500D03*
D11*
X325641550Y-83872500D03*
D10*
X330721550Y-83872500D03*
D12*
X328181550Y-78792500D03*
X321831550Y-81332500D03*
%TD*%
D10*
%TO.C,SW41*%
X334849050Y-126735000D03*
D11*
X339929050Y-126735000D03*
D10*
X345009050Y-126735000D03*
D12*
X342469050Y-121655000D03*
X336119050Y-124195000D03*
%TD*%
D10*
%TO.C,SW37*%
X258649050Y-126735000D03*
D11*
X263729050Y-126735000D03*
D10*
X268809050Y-126735000D03*
D12*
X266269050Y-121655000D03*
X259919050Y-124195000D03*
%TD*%
D10*
%TO.C,SW33*%
X182449050Y-126735000D03*
D11*
X187529050Y-126735000D03*
D10*
X192609050Y-126735000D03*
D12*
X190069050Y-121655000D03*
X183719050Y-124195000D03*
%TD*%
D10*
%TO.C,SW82*%
X394989050Y-189167500D03*
D11*
X400069050Y-189167500D03*
D10*
X405149050Y-189167500D03*
D12*
X402609050Y-184087500D03*
X396259050Y-186627500D03*
%TD*%
D10*
%TO.C,SW1*%
X134824050Y-83872500D03*
D11*
X139904050Y-83872500D03*
D10*
X144984050Y-83872500D03*
D12*
X142444050Y-78792500D03*
X136094050Y-81332500D03*
%TD*%
D10*
%TO.C,SW60*%
X445339050Y-154992500D03*
D11*
X450419050Y-154992500D03*
D10*
X455499050Y-154992500D03*
D12*
X452959050Y-149912500D03*
X446609050Y-152452500D03*
%TD*%
D10*
%TO.C,SW49*%
X187211550Y-145785000D03*
D11*
X192291550Y-145785000D03*
D10*
X197371550Y-145785000D03*
D12*
X194831550Y-140705000D03*
X188481550Y-143245000D03*
%TD*%
D30*
%TO.C,D58*%
X371361550Y-144705000D03*
D29*
X371361550Y-137085000D03*
%TD*%
D30*
%TO.C,D22*%
X280874050Y-106605000D03*
D29*
X280874050Y-98985000D03*
%TD*%
D30*
%TO.C,D25*%
X338024050Y-106605000D03*
D29*
X338024050Y-98985000D03*
%TD*%
D30*
%TO.C,D35*%
X233249050Y-125655000D03*
D29*
X233249050Y-118035000D03*
%TD*%
D30*
%TO.C,D64*%
X209436550Y-163755000D03*
D29*
X209436550Y-156135000D03*
%TD*%
D30*
%TO.C,D70*%
X323736550Y-163755000D03*
D29*
X323736550Y-156135000D03*
%TD*%
D31*
%TO.C,D85*%
X456134050Y-95302500D03*
D29*
X448514050Y-95302500D03*
%TD*%
D30*
%TO.C,D41*%
X347549050Y-125655000D03*
D29*
X347549050Y-118035000D03*
%TD*%
D30*
%TO.C,D19*%
X223724050Y-106605000D03*
D29*
X223724050Y-98985000D03*
%TD*%
D30*
%TO.C,D74*%
X426739050Y-169037500D03*
D29*
X426739050Y-161417500D03*
%TD*%
D30*
%TO.C,D79*%
X338024050Y-182805000D03*
D29*
X338024050Y-175185000D03*
%TD*%
D30*
%TO.C,D82*%
X407689050Y-188087500D03*
D29*
X407689050Y-180467500D03*
%TD*%
D30*
%TO.C,D59*%
X402317800Y-144705000D03*
D29*
X402317800Y-137085000D03*
%TD*%
D30*
%TO.C,D40*%
X328499050Y-125655000D03*
D29*
X328499050Y-118035000D03*
%TD*%
D30*
%TO.C,D42*%
X366599050Y-125655000D03*
D29*
X366599050Y-118035000D03*
%TD*%
D30*
%TO.C,D66*%
X247536550Y-163755000D03*
D29*
X247536550Y-156135000D03*
%TD*%
D30*
%TO.C,D71*%
X342786550Y-163755000D03*
D29*
X342786550Y-156135000D03*
%TD*%
D30*
%TO.C,D15*%
X147524050Y-106605000D03*
D29*
X147524050Y-98985000D03*
%TD*%
D30*
%TO.C,D56*%
X333261550Y-144705000D03*
D29*
X333261550Y-137085000D03*
%TD*%
D30*
%TO.C,D39*%
X309449050Y-125655000D03*
D29*
X309449050Y-118035000D03*
%TD*%
D30*
%TO.C,D48*%
X180861550Y-144705000D03*
D29*
X180861550Y-137085000D03*
%TD*%
D30*
%TO.C,D75*%
X149905300Y-182805000D03*
D29*
X149905300Y-175185000D03*
%TD*%
D30*
%TO.C,D2*%
X171336550Y-82792500D03*
D29*
X171336550Y-75172500D03*
%TD*%
D30*
%TO.C,D62*%
X159430300Y-163755000D03*
D29*
X159430300Y-156135000D03*
%TD*%
D30*
%TO.C,D11*%
X352311550Y-82792500D03*
D29*
X352311550Y-75172500D03*
%TD*%
D30*
%TO.C,D33*%
X195149050Y-125655000D03*
D29*
X195149050Y-118035000D03*
%TD*%
D30*
%TO.C,D29*%
X438989050Y-115812500D03*
D29*
X438989050Y-108192500D03*
%TD*%
D30*
%TO.C,D55*%
X314211550Y-144705000D03*
D29*
X314211550Y-137085000D03*
%TD*%
D30*
%TO.C,D60*%
X458039050Y-153912500D03*
D29*
X458039050Y-146292500D03*
%TD*%
D30*
%TO.C,D28*%
X404699050Y-106605000D03*
D29*
X404699050Y-98985000D03*
%TD*%
D30*
%TO.C,D68*%
X285636550Y-163755000D03*
D29*
X285636550Y-156135000D03*
%TD*%
D30*
%TO.C,D80*%
X357074050Y-182805000D03*
D29*
X357074050Y-175185000D03*
%TD*%
D30*
%TO.C,D73*%
X388030300Y-163755000D03*
D29*
X388030300Y-156135000D03*
%TD*%
D30*
%TO.C,D69*%
X304686550Y-163755000D03*
D29*
X304686550Y-156135000D03*
%TD*%
D30*
%TO.C,D38*%
X290399050Y-125655000D03*
D29*
X290399050Y-118035000D03*
%TD*%
D30*
%TO.C,D8*%
X290399050Y-82792500D03*
D29*
X290399050Y-75172500D03*
%TD*%
D30*
%TO.C,D54*%
X295161550Y-144705000D03*
D29*
X295161550Y-137085000D03*
%TD*%
D30*
%TO.C,D49*%
X199911550Y-144705000D03*
D29*
X199911550Y-137085000D03*
%TD*%
D30*
%TO.C,D31*%
X152286550Y-125655000D03*
D29*
X152286550Y-118035000D03*
%TD*%
D30*
%TO.C,D13*%
X390411550Y-82792500D03*
D29*
X390411550Y-75172500D03*
%TD*%
D30*
%TO.C,D61*%
X477089050Y-153912500D03*
D29*
X477089050Y-146292500D03*
%TD*%
D30*
%TO.C,D30*%
X458039050Y-115812500D03*
D29*
X458039050Y-108192500D03*
%TD*%
D30*
%TO.C,D57*%
X352311550Y-144705000D03*
D29*
X352311550Y-137085000D03*
%TD*%
D30*
%TO.C,D20*%
X242774050Y-106605000D03*
D29*
X242774050Y-98985000D03*
%TD*%
D30*
%TO.C,D7*%
X271349050Y-82792500D03*
D29*
X271349050Y-75172500D03*
%TD*%
D30*
%TO.C,D12*%
X371361550Y-82792500D03*
D29*
X371361550Y-75172500D03*
%TD*%
D30*
%TO.C,D76*%
X173717800Y-182805000D03*
D29*
X173717800Y-175185000D03*
%TD*%
D30*
%TO.C,D63*%
X190386550Y-163755000D03*
D29*
X190386550Y-156135000D03*
%TD*%
D28*
%TO.C,D86*%
X480868550Y-95228500D03*
D29*
X488488550Y-95228500D03*
%TD*%
D30*
%TO.C,D36*%
X252299050Y-125655000D03*
D29*
X252299050Y-118035000D03*
%TD*%
D30*
%TO.C,D81*%
X376124050Y-182805000D03*
D29*
X376124050Y-175185000D03*
%TD*%
D30*
%TO.C,D9*%
X309449050Y-82792500D03*
D29*
X309449050Y-75172500D03*
%TD*%
D30*
%TO.C,D34*%
X214199050Y-125655000D03*
D29*
X214199050Y-118035000D03*
%TD*%
D30*
%TO.C,D51*%
X238011550Y-144705000D03*
D29*
X238011550Y-137085000D03*
%TD*%
D30*
%TO.C,D24*%
X318974050Y-106605000D03*
D29*
X318974050Y-98985000D03*
%TD*%
D30*
%TO.C,D6*%
X252299050Y-82792500D03*
D29*
X252299050Y-75172500D03*
%TD*%
D30*
%TO.C,D14*%
X414224050Y-82792500D03*
D29*
X414224050Y-75172500D03*
%TD*%
D30*
%TO.C,D43*%
X385649050Y-127687500D03*
D29*
X385649050Y-120067500D03*
%TD*%
D30*
%TO.C,D83*%
X426739050Y-188087500D03*
D29*
X426739050Y-180467500D03*
%TD*%
D30*
%TO.C,D77*%
X197530300Y-182805000D03*
D29*
X197530300Y-175185000D03*
%TD*%
D30*
%TO.C,D4*%
X209436550Y-82792500D03*
D29*
X209436550Y-75172500D03*
%TD*%
D30*
%TO.C,D67*%
X266586550Y-163755000D03*
D29*
X266586550Y-156135000D03*
%TD*%
D30*
%TO.C,D21*%
X261824050Y-106605000D03*
D29*
X261824050Y-98985000D03*
%TD*%
D30*
%TO.C,D78*%
X268967800Y-182805000D03*
D29*
X268967800Y-175185000D03*
%TD*%
D30*
%TO.C,D32*%
X176099050Y-125655000D03*
D29*
X176099050Y-118035000D03*
%TD*%
D30*
%TO.C,D84*%
X445789050Y-188087500D03*
D29*
X445789050Y-180467500D03*
%TD*%
D30*
%TO.C,D5*%
X228486550Y-82792500D03*
D29*
X228486550Y-75172500D03*
%TD*%
D30*
%TO.C,D18*%
X204674050Y-106605000D03*
D29*
X204674050Y-98985000D03*
%TD*%
D30*
%TO.C,D65*%
X228486550Y-163755000D03*
D29*
X228486550Y-156135000D03*
%TD*%
D30*
%TO.C,D23*%
X299924050Y-106605000D03*
D29*
X299924050Y-98985000D03*
%TD*%
D30*
%TO.C,D26*%
X357074050Y-106605000D03*
D29*
X357074050Y-98985000D03*
%TD*%
D30*
%TO.C,D52*%
X257061550Y-144705000D03*
D29*
X257061550Y-137085000D03*
%TD*%
D30*
%TO.C,D10*%
X333261550Y-82792500D03*
D29*
X333261550Y-75172500D03*
%TD*%
D30*
%TO.C,D27*%
X376124050Y-106605000D03*
D29*
X376124050Y-98985000D03*
%TD*%
D30*
%TO.C,D3*%
X190386550Y-82792500D03*
D29*
X190386550Y-75172500D03*
%TD*%
D30*
%TO.C,D50*%
X218961550Y-144705000D03*
D29*
X218961550Y-137085000D03*
%TD*%
D30*
%TO.C,D17*%
X185624050Y-106605000D03*
D29*
X185624050Y-98985000D03*
%TD*%
D30*
%TO.C,D45*%
X448514050Y-134862500D03*
D29*
X448514050Y-127242500D03*
%TD*%
D30*
%TO.C,D46*%
X467564050Y-134862500D03*
D29*
X467564050Y-127242500D03*
%TD*%
D30*
%TO.C,D53*%
X276111550Y-144705000D03*
D29*
X276111550Y-137085000D03*
%TD*%
D30*
%TO.C,D37*%
X271349050Y-125655000D03*
D29*
X271349050Y-118035000D03*
%TD*%
D30*
%TO.C,D72*%
X361836550Y-163755000D03*
D29*
X361836550Y-156135000D03*
%TD*%
D30*
%TO.C,D44*%
X410414050Y-127687500D03*
D29*
X410414050Y-120067500D03*
%TD*%
D30*
%TO.C,D1*%
X147524050Y-82792500D03*
D29*
X147524050Y-75172500D03*
%TD*%
D30*
%TO.C,D47*%
X154667800Y-144705000D03*
D29*
X154667800Y-137085000D03*
%TD*%
D30*
%TO.C,D16*%
X166574050Y-106605000D03*
D29*
X166574050Y-98985000D03*
%TD*%
M02*
