M48
; DRILL file KiCad 10.0.3 date 2026-07-04T10:54:02
; FORMAT={-:-/ absolute / metric / decimal}
; #@! TF.CreationDate,2026-07-04T10:54:02-07:00
; #@! TF.GenerationSoftware,Kicad,Pcbnew,10.0.3
; #@! TF.FileFunction,Plated,1,2,PTH
FMAT,2
METRIC
; #@! TA.AperFunction,Plated,PTH,ViaDrill
T1C0.300
; #@! TA.AperFunction,Plated,PTH,ComponentDrill
T2C0.800
; #@! TA.AperFunction,Plated,PTH,ComponentDrill
T3C1.000
; #@! TA.AperFunction,Plated,PTH,ComponentDrill
T4C1.200
; #@! TA.AperFunction,Plated,PTH,ComponentDrill
T5C1.500
; #@! TA.AperFunction,Plated,PTH,ComponentDrill
T6C1.700
%
G90
G05
T1
X133.979Y-90.248
X136.279Y-91.647
X174.004Y-165.273
X175.318Y-135.755
X181.662Y-121.972
X200.121Y-147.919
X203.798Y-178.989
X231.439Y-100.046
X331.598Y-136.129
X331.679Y-119.247
X334.443Y-120.106
X338.379Y-155.147
X341.91Y-174.55
X342.079Y-116.547
X346.101Y-97.76
X346.179Y-159.047
X350.579Y-128.347
X351.479Y-126.147
X355.512Y-157.005
X376.136Y-166.605
X385.039Y-175.332
X423.825Y-177.732
X425.959Y-177.675
X439.046Y-179.332
X441.694Y-177.275
X442.179Y-94.748
X442.179Y-96.447
X443.828Y-196.325
X446.69Y-196.406
X446.979Y-77.947
X449.479Y-82.713
X454.179Y-128.248
X454.61Y-103.646
X457.079Y-99.248
X457.279Y-97.547
X459.792Y-121.287
X460.659Y-123.535
X462.211Y-123.611
X462.325Y-121.325
X465.659Y-156.262
X466.002Y-143.328
X467.45Y-140.394
X467.812Y-143.899
X467.869Y-165.883
X469.093Y-141.961
X470.593Y-164.187
X475.984Y-160.968
X476.041Y-165.997
X479.079Y-152.447
X501.779Y-106.047
T2
X147.524Y-75.172
X147.524Y-82.792
X147.524Y-98.985
X147.524Y-106.605
X149.905Y-175.185
X149.905Y-182.805
X152.287Y-118.035
X152.287Y-125.655
X154.668Y-137.085
X154.668Y-144.705
X159.43Y-156.135
X159.43Y-163.755
X166.574Y-98.985
X166.574Y-106.605
X171.337Y-75.172
X171.337Y-82.792
X173.718Y-175.185
X173.718Y-182.805
X176.099Y-118.035
X176.099Y-125.655
X180.862Y-137.085
X180.862Y-144.705
X185.624Y-98.985
X185.624Y-106.605
X190.387Y-75.172
X190.387Y-82.792
X190.387Y-156.135
X190.387Y-163.755
X195.149Y-118.035
X195.149Y-125.655
X197.53Y-175.185
X197.53Y-182.805
X199.912Y-137.085
X199.912Y-144.705
X204.674Y-98.985
X204.674Y-106.605
X209.437Y-75.172
X209.437Y-82.792
X209.437Y-156.135
X209.437Y-163.755
X214.199Y-118.035
X214.199Y-125.655
X218.962Y-137.085
X218.962Y-144.705
X223.724Y-98.985
X223.724Y-106.605
X228.487Y-75.172
X228.487Y-82.792
X228.487Y-156.135
X228.487Y-163.755
X233.249Y-118.035
X233.249Y-125.655
X238.012Y-137.085
X238.012Y-144.705
X242.774Y-98.985
X242.774Y-106.605
X247.537Y-156.135
X247.537Y-163.755
X252.299Y-75.172
X252.299Y-82.792
X252.299Y-118.035
X252.299Y-125.655
X257.062Y-137.085
X257.062Y-144.705
X261.824Y-98.985
X261.824Y-106.605
X266.587Y-156.135
X266.587Y-163.755
X268.968Y-175.185
X268.968Y-182.805
X271.349Y-75.172
X271.349Y-82.792
X271.349Y-118.035
X271.349Y-125.655
X276.112Y-137.085
X276.112Y-144.705
X280.874Y-98.985
X280.874Y-106.605
X285.637Y-156.135
X285.637Y-163.755
X290.399Y-75.172
X290.399Y-82.792
X290.399Y-118.035
X290.399Y-125.655
X295.162Y-137.085
X295.162Y-144.705
X299.924Y-98.985
X299.924Y-106.605
X304.687Y-156.135
X304.687Y-163.755
X309.449Y-75.172
X309.449Y-82.792
X309.449Y-118.035
X309.449Y-125.655
X314.212Y-137.085
X314.212Y-144.705
X318.974Y-98.985
X318.974Y-106.605
X323.737Y-156.135
X323.737Y-163.755
X328.499Y-118.035
X328.499Y-125.655
X333.262Y-75.172
X333.262Y-82.792
X333.262Y-137.085
X333.262Y-144.705
X338.024Y-98.985
X338.024Y-106.605
X338.024Y-175.185
X338.024Y-182.805
X342.787Y-156.135
X342.787Y-163.755
X347.549Y-118.035
X347.549Y-125.655
X352.312Y-75.172
X352.312Y-82.792
X352.312Y-137.085
X352.312Y-144.705
X357.074Y-98.985
X357.074Y-106.605
X357.074Y-175.185
X357.074Y-182.805
X361.837Y-156.135
X361.837Y-163.755
X366.599Y-118.035
X366.599Y-125.655
X371.362Y-75.172
X371.362Y-82.792
X371.362Y-137.085
X371.362Y-144.705
X376.124Y-98.985
X376.124Y-106.605
X376.124Y-175.185
X376.124Y-182.805
X385.649Y-120.067
X385.649Y-127.688
X388.03Y-156.135
X388.03Y-163.755
X390.412Y-75.172
X390.412Y-82.792
X402.318Y-137.085
X402.318Y-144.705
X404.699Y-98.985
X404.699Y-106.605
X407.689Y-180.468
X407.689Y-188.088
X410.414Y-120.067
X410.414Y-127.688
X414.224Y-75.172
X414.224Y-82.792
X426.739Y-161.417
X426.739Y-169.037
X426.739Y-180.468
X426.739Y-188.088
X438.989Y-108.192
X438.989Y-115.812
X445.789Y-180.468
X445.789Y-188.088
X448.514Y-95.302
X448.514Y-127.242
X448.514Y-134.862
X451.494Y-75.623
X456.134Y-95.302
X458.039Y-108.192
X458.039Y-115.812
X458.039Y-146.292
X458.039Y-153.912
X459.114Y-75.623
X467.564Y-127.242
X467.564Y-134.862
X477.089Y-146.292
X477.089Y-153.912
X480.869Y-95.228
X488.489Y-95.228
X503.634Y-83.691
X505.634Y-83.691
X507.634Y-83.691
T3
X456.179Y-80.507
X456.179Y-83.047
X456.179Y-85.587
X456.179Y-88.127
X466.279Y-178.528
X466.279Y-183.528
X480.779Y-178.528
X480.779Y-181.028
X480.779Y-183.528
X480.899Y-104.828
X483.439Y-104.828
T4
X503.914Y-111.892
X503.914Y-185.392
X504.714Y-180.142
X506.614Y-117.142
X507.414Y-111.892
X507.414Y-185.392
T5
X136.094Y-81.332
X136.094Y-105.145
X138.475Y-181.345
X140.857Y-124.195
X142.444Y-78.792
X142.444Y-102.605
X143.238Y-143.245
X144.825Y-178.805
X147.207Y-121.655
X148.0Y-162.295
X149.588Y-140.705
X154.35Y-159.755
X155.144Y-105.145
X159.907Y-81.332
X161.494Y-102.605
X162.288Y-181.345
X164.669Y-124.195
X166.257Y-78.792
X168.638Y-178.805
X169.432Y-143.245
X171.019Y-121.655
X174.194Y-105.145
X175.782Y-140.705
X178.957Y-81.332
X178.957Y-162.295
X180.544Y-102.605
X183.719Y-124.195
X185.307Y-78.792
X185.307Y-159.755
X186.1Y-181.345
X188.482Y-143.245
X190.069Y-121.655
X192.45Y-178.805
X193.244Y-105.145
X194.832Y-140.705
X198.007Y-81.332
X198.007Y-162.295
X199.594Y-102.605
X202.769Y-124.195
X204.357Y-78.792
X204.357Y-159.755
X207.532Y-143.245
X209.119Y-121.655
X212.294Y-105.145
X213.882Y-140.705
X217.057Y-81.332
X217.057Y-162.295
X218.644Y-102.605
X221.819Y-124.195
X223.407Y-78.792
X223.407Y-159.755
X226.582Y-143.245
X228.169Y-121.655
X231.344Y-105.145
X232.932Y-140.705
X236.107Y-162.295
X237.694Y-102.605
X240.869Y-81.332
X240.869Y-124.195
X242.457Y-159.755
X245.632Y-143.245
X247.219Y-78.792
X247.219Y-121.655
X250.394Y-105.145
X251.982Y-140.705
X255.157Y-162.295
X256.744Y-102.605
X257.538Y-181.345
X259.919Y-81.332
X259.919Y-124.195
X261.507Y-159.755
X263.888Y-178.805
X264.682Y-143.245
X266.269Y-78.792
X266.269Y-121.655
X269.444Y-105.145
X271.032Y-140.705
X274.207Y-162.295
X275.794Y-102.605
X278.969Y-81.332
X278.969Y-124.195
X280.557Y-159.755
X283.732Y-143.245
X285.319Y-78.792
X285.319Y-121.655
X288.494Y-105.145
X290.082Y-140.705
X293.257Y-162.295
X294.844Y-102.605
X298.019Y-81.332
X298.019Y-124.195
X299.607Y-159.755
X302.782Y-143.245
X304.369Y-78.792
X304.369Y-121.655
X307.544Y-105.145
X309.132Y-140.705
X312.307Y-162.295
X313.894Y-102.605
X317.069Y-124.195
X318.657Y-159.755
X321.832Y-81.332
X321.832Y-143.245
X323.419Y-121.655
X326.594Y-105.145
X326.594Y-181.345
X328.182Y-78.792
X328.182Y-140.705
X331.357Y-162.295
X332.944Y-102.605
X332.944Y-178.805
X336.119Y-124.195
X337.707Y-159.755
X340.882Y-81.332
X340.882Y-143.245
X342.469Y-121.655
X345.644Y-105.145
X345.644Y-181.345
X347.232Y-78.792
X347.232Y-140.705
X350.407Y-162.295
X351.994Y-102.605
X351.994Y-178.805
X355.169Y-124.195
X356.757Y-159.755
X359.932Y-81.332
X359.932Y-143.245
X361.519Y-121.655
X364.694Y-105.145
X364.694Y-181.345
X366.282Y-78.792
X366.282Y-140.705
X371.044Y-102.605
X371.044Y-178.805
X374.219Y-124.195
X376.6Y-162.295
X378.982Y-81.332
X380.569Y-121.655
X382.95Y-159.755
X385.332Y-78.792
X390.888Y-143.245
X393.269Y-105.145
X396.259Y-186.627
X397.238Y-140.705
X398.032Y-124.195
X399.619Y-102.605
X402.609Y-184.088
X402.794Y-81.332
X404.382Y-121.655
X409.144Y-78.792
X415.309Y-167.577
X415.309Y-186.627
X421.659Y-165.037
X421.659Y-184.088
X427.559Y-114.352
X433.909Y-111.812
X434.359Y-186.627
X437.084Y-133.403
X440.709Y-184.088
X443.434Y-130.862
X446.609Y-114.352
X446.609Y-152.452
X452.959Y-111.812
X452.959Y-149.912
X456.134Y-133.403
X462.484Y-130.862
X465.659Y-152.452
X472.009Y-149.912
X501.534Y-83.691
X509.734Y-83.691
T6
X501.414Y-117.242
X501.414Y-180.042
X509.914Y-116.042
X509.914Y-181.242
T5
G00X473.929Y-175.427
M15
G01X472.629Y-175.427
M16
G05
G00X473.929Y-186.627
M15
G01X472.629Y-186.627
M16
G05
M30
